<svg width="256" height="22" fill="none" xmlns="http://www.w3.org/2000/svg"><path fill-rule="evenodd" clip-rule="evenodd" d="M40.043 5.931c1.755 0 3.169.447 4.242 1.341 1.074.895 1.648 2.114 1.722 3.658h-3.192c-.056-.697-.336-1.252-.84-1.667-.504-.414-1.186-.62-2.044-.62-.84 0-1.484.16-1.932.48-.449.32-.673.743-.673 1.27 0 .414.15.763.449 1.045.298.282.662.504 1.092.664.429.16 1.064.362 1.904.607 1.12.301 2.04.607 2.758.918.719.31 1.34.767 1.862 1.37.523.602.794 1.402.812 2.4a4.05 4.05 0 0 1-.728 2.372c-.485.697-1.171 1.243-2.058 1.638-.887.395-1.927.593-3.122.593-1.214 0-2.301-.224-3.263-.664-.961-.442-1.722-1.045-2.282-1.807a4.529 4.529 0 0 1-.896-2.556h3.304c.056.66.37 1.21.938 1.652.57.443 1.284.664 2.143.664.896 0 1.591-.174 2.086-.523.495-.348.742-.795.742-1.341 0-.584-.275-1.017-.826-1.3-.55-.281-1.423-.592-2.618-.931-1.158-.32-2.1-.63-2.829-.932a4.96 4.96 0 0 1-1.89-1.384c-.532-.621-.798-1.44-.798-2.457 0-.828.243-1.586.728-2.273.486-.687 1.181-1.229 2.086-1.624.906-.395 1.947-.593 3.123-.593Zm82.16 0c1.456 0 2.754.32 3.892.96a6.759 6.759 0 0 1 2.661 2.697c.634 1.158.952 2.49.952 3.996 0 .584-.038 1.111-.112 1.582h-11.789c.093 1.242.548 2.24 1.372 2.993.821.753 1.829 1.13 3.024 1.13 1.718 0 2.931-.725 3.64-2.175h3.445c-.467 1.431-1.312 2.603-2.534 3.516-1.223.913-2.74 1.37-4.551 1.37-1.475 0-2.796-.334-3.962-1.003-1.167-.668-2.082-1.61-2.745-2.824-.662-1.214-.994-2.621-.994-4.222 0-1.6.322-3.007.966-4.222.644-1.214 1.55-2.15 2.717-2.81 1.166-.658 2.506-.988 4.018-.988Zm-33.044 0c1.475 0 2.81.329 4.005.988 1.194.659 2.137 1.6 2.828 2.824.69 1.224 1.036 2.626 1.036 4.208 0 1.581-.355 2.984-1.064 4.208a7.397 7.397 0 0 1-2.898 2.838C91.843 21.665 90.494 22 89.019 22c-1.456 0-2.772-.335-3.948-1.003a7.173 7.173 0 0 1-2.773-2.824c-.672-1.214-1.008-2.622-1.008-4.222 0-1.582.346-2.984 1.036-4.208.691-1.224 1.634-2.165 2.829-2.824 1.195-.659 2.53-.988 4.004-.988Zm160.456-.085c1.848 0 3.323.466 4.425 1.398 1.101.932 1.708 2.188 1.82 3.77h-3.752c-.056-.621-.315-1.116-.771-1.483-.457-.367-1.068-.55-1.834-.55-.711 0-1.255.131-1.638.395s-.574.63-.574 1.101c0 .527.261.928.784 1.2.521.274 1.335.551 2.436.834 1.121.282 2.045.574 2.773.875a4.9 4.9 0 0 1 1.89 1.398c.532.63.805 1.464.826 2.5 0 .903-.247 1.713-.742 2.428-.495.715-1.204 1.276-2.128 1.68-.924.405-2.003.608-3.235.608-1.269 0-2.408-.231-3.416-.692-1.01-.462-1.806-1.088-2.394-1.878a4.784 4.784 0 0 1-.966-2.627h3.948c.072.603.369 1.102.882 1.497.514.395 1.153.593 1.918.593.745 0 1.328-.15 1.751-.452.42-.301.63-.687.63-1.158 0-.508-.259-.89-.77-1.143-.514-.255-1.331-.532-2.451-.834-1.157-.282-2.107-.574-2.842-.875a4.938 4.938 0 0 1-1.904-1.384c-.532-.621-.798-1.459-.798-2.513 0-.866.245-1.657.742-2.372.494-.716 1.204-1.28 2.126-1.695.926-.414 2.013-.621 3.264-.621Zm-79.445 0c1.158 0 2.173.235 3.041.706.868.47 1.563 1.064 2.084 1.779V6.1h3.95v15.645h-3.95v-2.287c-.504.734-1.197 1.341-2.084 1.821-.889.48-1.911.72-3.069.72-1.304 0-2.497-.338-3.57-1.016-1.074-.678-1.921-1.633-2.549-2.867-.623-1.233-.935-2.65-.935-4.25 0-1.581.312-2.984.935-4.208.628-1.223 1.475-2.165 2.549-2.824 1.073-.659 2.275-.988 3.598-.988ZM67.654.847V8.5c.54-.753 1.283-1.37 2.226-1.85.943-.48 1.993-.72 3.15-.72 1.363 0 2.595.33 3.697.989 1.101.659 1.97 1.596 2.604 2.81.635 1.214.952 2.603.952 4.165 0 1.563-.317 2.961-.952 4.194s-1.508 2.194-2.618 2.88C75.602 21.657 74.374 22 73.03 22c-1.195 0-2.254-.236-3.178-.706-.924-.471-1.657-1.074-2.199-1.808v2.26h-3.192V.846h3.192Zm157.292 4.998c1.475 0 2.793.32 3.96.96a6.708 6.708 0 0 1 2.716 2.726c.647 1.176.967 2.527.967 4.052 0 .565-.035 1.073-.112 1.525h-11.342c.094 1.13.486 2.015 1.176 2.655.691.64 1.541.96 2.551.96 1.456 0 2.49-.63 3.108-1.892h4.226c-.445 1.506-1.304 2.744-2.573 3.714-1.272.972-2.829 1.454-4.677 1.454-1.496 0-2.835-.334-4.021-1.002a7.015 7.015 0 0 1-2.77-2.839c-.662-1.223-.994-2.636-.994-4.236 0-1.617.327-3.038.98-4.264a6.865 6.865 0 0 1 2.745-2.824c1.176-.657 2.529-.989 4.06-.989ZM3.386 2.118l4.035 15.984 4.366-15.984h3.587l4.058 15.9 4.063-15.9h3.414l-5.767 19.628H17.53L13.44 6.89 9.1 21.746l-3.585.028L0 2.118h3.386Zm239.058 3.757v4.15h-1.036c-1.229 0-2.161.293-2.784.876-.627.584-.94 1.6-.94 3.05v7.795h-3.918V6.1h3.918v2.43a5.534 5.534 0 0 1 1.974-1.95c.815-.47 1.741-.705 2.786-.705Zm-136.147.056c1.214 0 2.301.254 3.262.762.962.509 1.713 1.262 2.255 2.26.541.997.812 2.202.812 3.614v9.179h-3.165v-8.698c0-1.394-.345-2.462-1.036-3.206-.69-.744-1.633-1.115-2.828-1.115-1.195 0-2.142.371-2.842 1.115-.7.744-1.05 1.812-1.05 3.205v8.699h-3.193V6.185h3.193v1.78c.522-.641 1.19-1.14 2.002-1.498a6.352 6.352 0 0 1 2.59-.536Zm83.222-.056v4.15h-1.036c-1.23 0-2.161.293-2.784.876-.627.584-.94 1.6-.94 3.05v7.795h-3.918V6.1h3.918v2.43a5.534 5.534 0 0 1 1.974-1.95c.814-.47 1.741-.705 2.786-.705ZM51.721.847v7.145a5.356 5.356 0 0 1 2.058-1.525c.83-.357 1.74-.536 2.73-.536 1.176 0 2.227.254 3.15.762.925.509 1.653 1.262 2.185 2.26.532.997.798 2.202.798 3.614v9.179h-3.164v-8.698c0-1.394-.346-2.462-1.037-3.206-.69-.744-1.633-1.115-2.828-1.115-1.195 0-2.142.371-2.842 1.115-.7.744-1.05 1.812-1.05 3.205v8.699h-3.193V.847h3.193ZM31.615 6.185v15.56h-3.193V6.185h3.193Zm124.33-4.152c1.512 0 2.8.264 3.864.79 1.065.528 1.863 1.253 2.395 2.175.532.923.796 1.968.796 3.135a6.187 6.187 0 0 1-.74 2.965c-.495.923-1.27 1.667-2.324 2.231-1.055.565-2.385.848-3.991.848h-3.276v7.568h-3.921V2.033h7.197Zm40.214.198V6.1h3.472v3.248h-3.472v7.568c0 .527.126.909.378 1.144.252.235.676.353 1.274.353h1.82v3.332h-2.464c-3.305 0-4.957-1.619-4.957-4.857v-7.54h-1.848V6.1h1.848V2.231h3.949Zm13.775 3.643c1.848 0 3.344.588 4.481 1.765 1.139 1.177 1.708 2.82 1.708 4.928v9.178h-3.918v-8.642c0-1.242-.311-2.198-.927-2.866-.613-.668-1.456-1.003-2.52-1.003-1.083 0-1.937.335-2.56 1.003-.628.668-.94 1.624-.94 2.867v8.641h-3.921V6.1h3.921v1.948a5.409 5.409 0 0 1 2.004-1.595c.81-.386 1.701-.58 2.672-.58ZM72.33 8.726a4.5 4.5 0 0 0-2.282.622c-.719.414-1.298 1.016-1.736 1.807-.44.79-.659 1.723-.659 2.796 0 1.073.22 2.01.659 2.81.438.8 1.017 1.407 1.736 1.821a4.5 4.5 0 0 0 2.282.622c.822 0 1.591-.212 2.31-.636.719-.423 1.298-1.04 1.736-1.85.44-.81.658-1.75.658-2.824 0-1.073-.219-2-.658-2.781-.438-.782-1.017-1.375-1.736-1.78a4.633 4.633 0 0 0-2.31-.607Zm16.773 0c-.821 0-1.582.198-2.282.593-.7.396-1.255.984-1.666 1.765-.411.782-.616 1.737-.616 2.867 0 1.675.424 2.97 1.274 3.883.85.913 1.918 1.37 3.206 1.37.822 0 1.592-.198 2.31-.593.72-.396 1.303-.989 1.75-1.78.449-.79.673-1.75.673-2.88s-.215-2.085-.644-2.867c-.43-.78-1-1.37-1.709-1.765a4.64 4.64 0 0 0-2.296-.593Zm51.805-4.236V9.97h5.29v3.445h-5.29v5.479h-3.696v-5.479h-5.293V9.97h5.293V4.49h3.696Zm30.273 4.83c-.731 0-1.403.178-2.019.536-.614.358-1.115.88-1.496 1.567-.382.688-.574 1.502-.574 2.443 0 .942.192 1.765.574 2.471.381.706.887 1.248 1.51 1.624a3.827 3.827 0 0 0 2.005.565c.725 0 1.407-.184 2.044-.55.632-.368 1.136-.895 1.51-1.582.373-.687.56-1.511.56-2.471 0-.96-.187-1.784-.56-2.471-.374-.688-.878-1.215-1.51-1.582a4.029 4.029 0 0 0-2.044-.55Zm-49.118-.678c-1.101 0-2.044.353-2.828 1.06-.784.705-1.251 1.66-1.4 2.866h8.54c-.018-1.186-.438-2.137-1.26-2.853-.823-.715-1.839-1.073-3.052-1.073Zm102.769.451c-.971 0-1.788.297-2.451.89-.662.593-1.068 1.416-1.215 2.47h7.362c-.019-1.016-.383-1.83-1.092-2.442-.707-.612-1.578-.918-2.604-.918Zm-69.055-3.84h-3.108v5.732h3.108c1.083 0 1.883-.25 2.408-.748.523-.499.784-1.2.784-2.104 0-1.92-1.064-2.88-3.192-2.88ZM30.047 0c.56 0 1.036.198 1.428.593.392.395.588.885.588 1.469 0 .583-.196 1.073-.588 1.468a1.936 1.936 0 0 1-1.428.593c-.58 0-1.064-.198-1.457-.593-.392-.395-.588-.885-.588-1.468 0-.584.196-1.074.588-1.469.393-.395.878-.593 1.457-.593Z" fill="#1B1A1A"/></svg>