<svg width="432" height="290" fill="none" xmlns="http://www.w3.org/2000/svg"><path fill-rule="evenodd" clip-rule="evenodd" d="M135.589 76.682c.144 0 .144.017.287.017.106 0 .195.012.268.046.086.04.159.1.198.188a.684.684 0 0 1 .053.276.742.742 0 0 1-.096.314 1.874 1.874 0 0 1-.18.274 2.257 2.257 0 0 0-.171.261.635.635 0 0 0-.095.293c0 .058.026.146.074.27.028.075.064.16.111.26.037.076.061.17.108.262.04.078.086.161.134.25.042.078.095.157.143.243l.14.247c.045.079.097.158.146.242.046.08.083.167.133.25.047.08.1.158.151.24.047.08.105.154.156.237.047.078.095.16.146.242.048.08.103.156.154.238l.149.24c.049.078.096.16.147.241l.15.24c.049.08.086.168.137.249.05.079.112.151.163.231.05.08.109.154.16.234.05.079.096.162.147.243.051.077.1.158.153.237.05.08.099.16.151.24.045-.09.098-.17.141-.257.045-.088.069-.186.112-.272.044-.088.106-.167.148-.253.044-.089.072-.184.114-.27.044-.09.09-.175.133-.262.044-.089.084-.178.126-.264l.128-.263c.043-.09.089-.176.131-.261.043-.09.097-.174.138-.26.043-.09.077-.182.118-.267.042-.092.079-.183.119-.268.043-.092.08-.182.119-.267.043-.093.092-.177.13-.262.042-.094.089-.18.127-.265.042-.095.08-.185.115-.268.043-.1.074-.192.107-.274.041-.105.071-.199.097-.276.046-.136.071-.23.071-.285 0-.072-.025-.153-.047-.251a2.767 2.767 0 0 0-.062-.248 5.756 5.756 0 0 0-.087-.24 3.69 3.69 0 0 1-.085-.242c-.028-.09-.029-.178-.045-.253-.021-.097-.051-.179-.051-.25 0-.105.034-.188.063-.26a.348.348 0 0 1 .169-.192.537.537 0 0 1 .255-.062c.139 0 .139-.012.278-.012.138 0 .138.015.277.015.138 0 .138.002.277.002h.139l.139.002c.139 0 .139-.019.278-.019s.139.016.277.016c.139 0 .139.003.278.003.035 0 .061-.001.082-.003l.113-.012.082-.003c.139 0 .139.009.278.009.138 0 .138.012.277.012s.139-.016.277-.016c.139 0 .139.003.278.003s.139.006.277.006c.12 0 .223.01.311.032.119.031.218.073.278.146a.466.466 0 0 1 .094.304.7.7 0 0 1-.066.265.637.637 0 0 1-.15.222c-.06.06-.122.13-.208.177-.087.047-.178.076-.256.119-.087.048-.161.108-.238.15-.089.05-.178.084-.252.127-.091.054-.17.104-.24.148-.101.063-.181.112-.235.154-.068.054-.13.126-.198.202-.059.066-.125.133-.184.215-.053.072-.094.158-.147.243-.048.076-.101.153-.15.24-.044.078-.091.16-.136.248l-.138.254-.135.256c-.044.085-.071.18-.115.267-.043.085-.088.17-.134.258-.042.085-.096.166-.14.253-.042.086-.073.178-.116.266-.042.085-.102.164-.146.252-.041.085-.07.179-.113.267l-.127.26c-.042.086-.096.167-.138.255l-.118.266c-.041.086-.076.176-.119.265-.04.086-.1.164-.142.253-.041.087-.074.178-.115.266l-.123.263c-.041.087-.073.178-.114.267-.041.087-.087.172-.127.26-.041.088-.089.172-.13.26-.04.088-.077.177-.118.266-.04.087-.085.172-.126.261-.04.087-.072.179-.113.267-.04.09-.087.174-.126.261-.04.09-.071.181-.11.269-.041.088-.094.17-.134.256-.04.09-.076.18-.115.266-.041.09-.073.18-.112.267l-.122.263c-.04.09-.076.18-.115.266-.04.09-.083.175-.123.262-.04.09-.089.173-.128.26-.041.088-.073.18-.112.266-.042.09-.097.17-.137.256-.042.09-.068.183-.108.27-.041.089-.076.179-.116.265-.041.09-.099.169-.139.254-.042.09-.068.184-.108.269-.041.09-.084.177-.123.261-.044.09-.092.173-.133.258l-.125.26c-.044.092-.078.182-.117.265-.045.092-.101.172-.141.253-.047.094-.078.185-.119.264-.041.087-.08.176-.125.261-.045.086-.11.16-.157.243-.049.083-.095.168-.146.25-.052.08-.094.168-.148.247-.055.08-.109.16-.167.237-.057.078-.112.156-.172.232a8.21 8.21 0 0 1-.184.223c-.062.072-.133.139-.199.21-.064.07-.135.135-.203.203-.068.07-.137.133-.204.197-.07.067-.139.131-.208.191-.074.064-.141.131-.213.188-.076.06-.155.111-.231.162-.081.055-.155.115-.234.16a2.978 2.978 0 0 1-.519.224 1.966 1.966 0 0 1-.276.058c-.094.015-.187.031-.279.031a2.47 2.47 0 0 1-.281-.019 2.581 2.581 0 0 1-.277-.046c-.091-.02-.177-.057-.267-.087-.088-.03-.177-.058-.263-.097-.084-.038-.165-.085-.248-.132-.08-.045-.164-.086-.243-.14-.079-.054-.16-.1-.227-.157a2.31 2.31 0 0 1-.201-.19c-.066-.068-.111-.15-.162-.222a1.513 1.513 0 0 1-.138-.238c-.037-.085-.078-.169-.097-.258-.02-.09-.016-.183-.016-.278 0-.09.011-.176.023-.263.014-.088.022-.177.048-.261a1.94 1.94 0 0 1 .099-.247c.037-.078.076-.159.126-.234.047-.072.115-.131.173-.2.071-.086.138-.167.214-.232.083-.072.171-.13.26-.177.094-.051.192-.086.292-.111.101-.025.203-.054.31-.054.103 0 .202.01.296.024.102.014.194.05.284.08.096.032.185.07.268.12.085.05.163.107.233.177.069.069.138.14.192.227.051.08.091.172.129.269.035.088.07.179.094.28.067-.052.128-.12.201-.196.06-.063.124-.132.189-.212.056-.07.109-.147.168-.23.053-.073.111-.148.166-.232.05-.076.098-.157.15-.242.048-.078.102-.156.152-.243.046-.08.096-.16.143-.247.044-.08.091-.164.136-.251.044-.082.091-.165.136-.252.047-.087.09-.174.134-.258.046-.089.079-.18.122-.266l.127-.26c.044-.091.095-.173.135-.258.042-.091.083-.18.121-.266.04-.092.067-.186.102-.272.038-.094.075-.183.107-.27.037-.095.071-.186.101-.274.032-.097.074-.19.099-.28-.044-.087-.104-.17-.148-.26-.043-.087-.081-.178-.126-.267-.044-.087-.081-.179-.126-.267-.044-.087-.1-.17-.146-.257-.045-.086-.083-.178-.129-.266-.046-.086-.105-.166-.152-.254l-.143-.258c-.046-.086-.085-.177-.133-.263-.047-.087-.101-.169-.149-.256l-.143-.259c-.048-.085-.1-.168-.149-.254a46.796 46.796 0 0 0-.146-.257c-.049-.085-.096-.172-.146-.258-.049-.084-.094-.171-.144-.257-.049-.084-.087-.177-.137-.262-.049-.085-.103-.167-.154-.252-.05-.084-.113-.161-.164-.246-.05-.084-.09-.175-.141-.26-.051-.084-.112-.162-.163-.247l-.15-.255c-.051-.084-.097-.17-.149-.255-.051-.084-.113-.16-.165-.245-.051-.083-.098-.17-.151-.255l-.155-.25-.148-.236c-.048-.074-.089-.158-.142-.24-.048-.075-.112-.144-.165-.225-.048-.076-.094-.157-.147-.237-.048-.077-.091-.16-.143-.24a27.283 27.283 0 0 0-.15-.235c-.049-.077-.104-.151-.156-.231-.049-.077-.105-.151-.156-.231-.049-.077-.082-.168-.133-.247a1.204 1.204 0 0 0-.221-.215 2.902 2.902 0 0 0-.245-.185c-.078-.052-.169-.1-.265-.156-.082-.048-.167-.106-.263-.157-.082-.046-.162-.084-.228-.133a1.27 1.27 0 0 1-.196-.179.813.813 0 0 1-.146-.22.66.66 0 0 1 .008-.564.434.434 0 0 1 .229-.203c.082-.032.186-.03.304-.03.036 0 .063 0 .085-.002l.117-.005.085-.002.288-.001c.144 0 .144.005.287.005s.143-.013.287-.013c.143 0 .143.004.287.004.143 0 .143.017.287.017h.085l.117-.006.085-.002h.085l.117-.004h.372l.085.001.117.003h.085c.143 0 .143.004.287.004.143 0 .143.004.287.004.143 0 .143-.013.287-.013h.085l.117.004.085.001c.036 0 .063 0 .085-.002l.117-.01.085-.002Zm-44.014.591c.094 0 .191.013.292.023.094.01.19.026.29.045a5.352 5.352 0 0 1 .568.142c.09.028.18.068.275.1.09.032.185.057.28.092.088.034.177.076.27.113.088.036.178.076.27.115l.27.116c.087.039.182.067.273.108.087.04.178.078.268.12.087.042.174.089.263.132.087.042.172.09.261.134.087.042.181.073.27.118.087.042.166.103.255.147.087.044.173.089.262.133.087.044.177.08.266.125.086.044.176.084.264.13.087.043.178.079.266.124.086.043.167.102.256.147.086.044.18.075.268.12.088.043.171.095.259.139l.264.128.268.12c.088.041.17.1.258.14l.267.122c.09.04.185.068.273.106.09.04.176.088.265.127.09.039.179.08.268.118.09.038.183.073.273.109.091.037.186.061.276.097l.273.105.276.11c.04.145-.002.152-.002.303 0 .15-.01.15-.01.301 0 .15.015.15.015.3v.604c0 .15-.011.15-.011.3 0 .152.006.152.006.302v.09l.001.122v.09c0 .15.008.15.008.3 0 .152-.01.152-.01.302 0 .151.009.151.009.301 0 .151.011.152-.002.302-.024-.007-.052-.027-.076-.037-.091-.037-.184-.06-.271-.095-.091-.036-.176-.082-.262-.116-.092-.036-.187-.055-.272-.089-.093-.036-.175-.09-.26-.122-.094-.036-.185-.067-.269-.098-.096-.036-.187-.065-.27-.094-.1-.036-.195-.052-.275-.078-.11-.036-.197-.073-.27-.091-.018.089-.047.182-.073.285-.023.09-.04.187-.068.287-.026.09-.067.181-.097.28-.028.09-.046.188-.077.285-.03.091-.052.187-.085.284-.03.09-.08.178-.113.274-.032.09-.055.187-.089.282l-.103.277c-.04.086-.086.17-.129.255-.042.085-.082.171-.128.256l-.144.245c-.047.083-.08.175-.129.256-.049.082-.109.156-.16.237l-.081.117-.082.116c-.054.079-.092.168-.147.246-.056.078-.109.156-.166.232-.058.076-.132.139-.19.213-.06.074-.11.156-.172.228-.06.073-.132.137-.195.208-.063.071-.12.147-.184.217l-.191.213c-.066.068-.135.132-.203.2-.068.065-.134.134-.203.199-.069.064-.148.12-.218.183-.071.063-.14.127-.212.189-.072.062-.145.123-.219.183-.073.06-.153.11-.229.168-.074.059-.136.133-.213.19-.075.057-.164.096-.241.15-.077.055-.156.108-.235.161-.077.054-.152.111-.233.163-.078.052-.149.116-.23.168-.08.05-.168.085-.25.134-.08.049-.153.112-.236.16-.082.047-.165.092-.247.138l-.25.137c-.083.044-.177.067-.262.11-.084.044-.16.104-.246.147s-.173.08-.259.121c-.085.042-.17.087-.257.126-.086.04-.177.07-.264.107-.088.038-.177.071-.264.108-.088.037-.175.076-.263.112-.088.035-.174.078-.263.112-.089.033-.182.056-.272.087-.09.033-.18.061-.27.092-.09.03-.176.074-.266.103l-.277.07c-.09.028-.183.053-.274.08l-.27.096c-.091.025-.185.043-.277.066-.092.022-.187.034-.28.055-.092.022-.183.05-.277.069l-.279.058c-.093.017-.185.042-.28.059-.092.016-.188.026-.28.04-.095.016-.19.022-.284.036-.094.014-.188.03-.282.042-.094.011-.187.037-.28.048l-.285.03-.284.022c-.095.007-.189.016-.284.022l-.285.014c-.095.005-.19.01-.285.012-.094.003-.19-.008-.285-.006-.095.002-.19.005-.285.005-.095 0-.19.009-.283.007l-.285-.005c-.094-.004-.188-.011-.282-.017-.095-.006-.188-.03-.281-.037-.095-.008-.19-.014-.283-.024-.094-.01-.19-.003-.283-.014-.094-.012-.185-.047-.278-.06-.094-.015-.188-.025-.28-.04-.094-.017-.186-.036-.279-.054-.092-.018-.186-.034-.278-.055-.092-.021-.183-.045-.275-.068-.091-.023-.184-.04-.275-.065-.092-.025-.18-.061-.27-.089-.09-.028-.186-.037-.276-.067-.09-.03-.177-.068-.265-.1-.089-.032-.18-.058-.269-.093-.087-.035-.17-.082-.258-.12a8.903 8.903 0 0 1-.258-.115l-.13-.06-.127-.061c-.085-.042-.168-.088-.252-.132-.083-.045-.167-.088-.25-.135-.082-.047-.168-.088-.25-.136-.08-.05-.16-.103-.239-.153-.08-.052-.15-.118-.228-.172-.078-.053-.16-.1-.237-.156-.077-.055-.158-.106-.233-.164-.075-.058-.142-.126-.215-.186-.074-.06-.145-.122-.218-.184-.075-.064-.149-.127-.22-.193-.074-.065-.153-.124-.223-.191-.07-.068-.13-.148-.198-.217-.07-.07-.149-.13-.215-.201-.067-.073-.118-.158-.181-.232-.065-.074-.137-.141-.199-.217a10.213 10.213 0 0 1-.35-.47 7.127 7.127 0 0 1-.163-.246c-.054-.082-.099-.17-.149-.254-.05-.085-.106-.166-.153-.252-.047-.085-.098-.17-.142-.257-.044-.088-.093-.174-.135-.263-.04-.089-.073-.182-.11-.274a5.77 5.77 0 0 1-.11-.274c-.034-.092-.055-.188-.087-.282-.03-.093-.063-.185-.092-.28a13.866 13.866 0 0 1-.079-.284c-.025-.095-.057-.188-.079-.284-.022-.096-.049-.19-.068-.287a9.527 9.527 0 0 1-.053-.291c-.016-.097-.035-.193-.048-.291-.014-.097-.007-.198-.018-.296-.01-.097-.02-.195-.028-.294-.007-.098-.023-.195-.028-.294-.005-.098-.013-.197-.016-.295-.002-.098.015-.197.015-.296 0-.098-.013-.197-.011-.294.003-.1.001-.197.007-.294.006-.099.031-.196.04-.293.009-.098.008-.196.02-.294a9.59 9.59 0 0 1 .04-.291c.016-.097.037-.193.055-.29l.029-.144.03-.143c.023-.096.037-.194.062-.288.025-.095.049-.19.078-.285.027-.093.062-.185.094-.278.031-.093.075-.182.11-.273.034-.092.063-.186.1-.276.039-.09.088-.175.129-.264.04-.089.081-.178.125-.265.044-.087.08-.18.127-.266.047-.085.108-.163.158-.247.048-.082.08-.173.133-.248.054-.078.116-.148.175-.22a4.526 4.526 0 0 1 .38-.411 5.08 5.08 0 0 1 .21-.186c.07-.06.155-.119.23-.176.044.138-.01.149-.01.294l-.001.086-.009.118-.002.087c0 .146.007.146.007.29 0 .037.001.064.003.087l.01.118.002.086c0 .145-.022.145-.022.291 0 .145.005.145.005.29v.087l.006.118.001.085c0 .146-.005.146-.005.291 0 .146.01.146.01.29 0 .146.004.146.004.292 0 .036-.002.063-.003.086l-.012.118-.003.086.001.086.007.118.001.086c0 .146-.009.146-.009.29 0 .147.013.147.013.292 0 .144-.016.144-.016.29 0 .145.006.145.006.29l.002.087.006.118.001.086c0 .036 0 .064-.002.086l-.008.119-.002.086v.086l.002.117v.087c0 .145.006.145.006.29 0 .037 0 .064-.002.087l-.006.117-.001.087c0 .145.018.145.018.29l.002.29.001.436v.145c0 .143-.007.26-.018.355a.96.96 0 0 1-.095.344c-.063.014-.185.044-.4.079-.003 0-.005-.009-.008-.008h-.005a.869.869 0 0 0-.294.116.755.755 0 0 0-.225.22.897.897 0 0 0-.13.288c-.026.097-.047.2-.047.315 0 .092-.008.17-.002.239a.929.929 0 0 0 .053.23c.03.09.072.17.134.236.056.06.132.109.222.152.073.036.157.065.254.09.08.02.166.044.264.059.082.011.173.007.27.015.083.007.172.015.268.02l.27.008c.085.002.175.005.27.005.143 0 .143.014.287.014s.144-.005.288-.005.144-.005.288-.005l.085-.002c.067-.003.094-.009.202-.009.144 0 .144.018.287.018.144 0 .144.004.288.004h.286c.144 0 .15-.048.29-.013.05.081.1.166.154.246.054.08.107.16.163.239.056.078.116.154.174.23.06.076.126.146.187.22.062.074.118.154.181.224.065.07.13.14.197.206.07.066.148.12.22.181.072.06.142.126.218.183.075.056.155.107.234.16.079.052.158.103.24.151.08.048.158.105.242.149.083.044.177.067.263.108.085.04.17.081.257.117.087.037.17.087.258.12.088.032.181.052.271.081.09.03.182.049.273.075.09.025.178.067.27.09.09.024.185.034.277.055.092.02.183.046.275.065.093.017.188.02.282.036.093.015.184.037.278.05.093.014.185.036.28.048.093.01.186.027.28.036.093.01.19-.001.283.007.094.007.189.01.282.017.095.006.188.015.283.019.094.004.187.02.282.024l.282.004c.095.001.19-.001.283-.001.095 0 .19-.005.285-.006.096-.002.191.009.286.005.095-.005.189-.03.284-.036.095-.006.19 0 .285-.008.095-.008.189-.03.283-.04.095-.01.191-.002.286-.015.094-.011.188-.028.282-.042.094-.014.185-.047.279-.062.094-.016.189-.025.282-.043.094-.019.189-.03.281-.05.094-.02.184-.05.277-.072a11.3 11.3 0 0 0 .276-.069c.093-.024.187-.04.278-.067.092-.026.184-.05.275-.079.09-.028.176-.075.266-.106.09-.031.181-.06.27-.092.09-.033.18-.06.27-.095.088-.035.177-.07.265-.107.088-.037.17-.085.257-.124.087-.04.18-.064.266-.105l.256-.13c.084-.044.163-.099.246-.145.084-.047.17-.088.252-.136.082-.049.165-.098.245-.149.081-.051.157-.11.235-.163.08-.054.156-.111.233-.167.077-.057.155-.113.23-.171.076-.06.156-.112.229-.173.074-.062.135-.136.206-.2a9.848 9.848 0 0 0 .413-.398c.066-.07.14-.13.204-.203.064-.07.122-.147.184-.22.06-.075.13-.14.188-.218.059-.076.097-.167.151-.245.055-.08.126-.147.177-.228.051-.082.102-.163.15-.247.047-.083.074-.178.118-.264.045-.088.096-.174.14-.263l.069-.132.067-.133c.041-.09.064-.188.103-.28.038-.092.083-.181.118-.274.035-.093.072-.185.104-.278.033-.095.051-.194.08-.288.028-.096.062-.19.087-.285.025-.098.057-.192.077-.288.02-.099.043-.196.058-.293.014-.1.012-.2.02-.298a3.423 3.423 0 0 0-.005-.592c-.009-.098-.007-.198-.023-.296-.018-.096-.043-.192-.068-.288-.025-.095-.069-.184-.1-.278-.03-.093-.057-.188-.094-.279-.038-.09-.08-.18-.123-.269-.043-.088-.091-.173-.14-.259a5.405 5.405 0 0 0-.15-.253c-.054-.082-.106-.165-.164-.244a5.28 5.28 0 0 0-.183-.231c-.063-.076-.132-.145-.199-.216-.069-.071-.137-.142-.207-.207-.074-.067-.141-.14-.217-.2-.078-.061-.166-.106-.246-.16-.075-.05-.15-.112-.237-.16-.079-.046-.17-.077-.259-.12-.083-.041-.163-.095-.252-.133-.086-.037-.178-.066-.269-.1a7.36 7.36 0 0 0-.267-.098c-.088-.031-.176-.07-.267-.1-.09-.028-.185-.043-.277-.069-.091-.025-.184-.046-.276-.069-.093-.023-.181-.06-.275-.08-.092-.02-.188-.029-.28-.046-.095-.017-.186-.045-.28-.06-.094-.014-.19-.006-.285-.017-.095-.011-.188-.028-.282-.035-.096-.01-.19-.02-.283-.025-.096-.005-.191 0-.284 0-.1 0-.197-.013-.293-.005-.097.007-.192.035-.288.05-.097.016-.194.021-.288.045-.095.023-.185.063-.277.094-.093.03-.186.06-.275.097-.09.038-.18.077-.266.122-.087.045-.168.1-.25.151a4.213 4.213 0 0 0-.245.162c-.079.057-.16.112-.234.175-.075.063-.145.133-.214.2-.071.069-.138.14-.203.213-.066.072-.13.147-.189.224-.061.078-.126.153-.18.234-.055.082-.099.17-.147.255-.049.086-.084.178-.126.266-.043.09-.087.177-.121.268-.036.093-.075.183-.103.277-.027.095-.042.192-.06.288-.02.097-.038.194-.048.29a2.935 2.935 0 0 0 .004.59c.013.097.022.198.049.294.026.095.071.184.109.277.036.091.08.179.129.265.049.086.09.179.15.255.061.079.142.138.214.203.073.067.152.123.236.172.095.054.181.11.268.151.098.047.192.086.283.12.1.038.198.07.291.096.102.028.203.045.3.066l.301.059c.099.02.197.045.3.07.095.03.192.065.284.112.089.046.172.105.255.166a1.912 1.912 0 0 1 .443.42c.062.081.106.175.153.266.047.09.1.18.13.278.03.098.04.201.052.304.011.1.027.203.018.308-.008.1-.033.2-.058.297-.026.097-.07.187-.115.28a1.61 1.61 0 0 1-.587.67c-.08.05-.177.08-.273.122-.087.04-.172.096-.272.126-.09.028-.192.036-.294.057a3.6 3.6 0 0 1-.294.05c-.095.012-.194.029-.297.035-.096.005-.196 0-.3 0-.1 0-.197-.01-.293-.019-.098-.008-.197-.008-.293-.025a3.042 3.042 0 0 1-.288-.059 3.155 3.155 0 0 1-.55-.213c-.087-.044-.176-.088-.26-.142-.081-.052-.156-.117-.235-.178-.077-.06-.146-.13-.22-.197-.07-.067-.15-.127-.218-.2-.065-.073-.124-.153-.186-.231-.06-.077-.128-.15-.184-.233-.058-.082-.097-.174-.149-.258-.052-.084-.112-.164-.158-.251-.047-.087-.081-.18-.123-.272-.04-.09-.093-.175-.129-.268-.034-.093-.057-.19-.088-.285-.03-.094-.053-.19-.077-.287-.024-.096-.054-.19-.073-.29a5.042 5.042 0 0 1-.047-.294c-.015-.097-.024-.197-.033-.296-.009-.098-.024-.197-.028-.298-.005-.097.01-.197.01-.298 0-.096.006-.19.01-.285.003-.095 0-.19.008-.285.008-.095.01-.19.02-.285.012-.095.025-.189.04-.283.016-.094.035-.187.055-.28.02-.093.05-.184.073-.276.024-.092.033-.188.061-.279.028-.091.063-.18.095-.27.031-.089.06-.18.095-.268.035-.088.08-.172.12-.259.039-.086.072-.176.115-.261.043-.084.106-.158.152-.241.046-.083.09-.167.14-.248.049-.08.088-.169.14-.248.053-.078.108-.155.164-.233.055-.076.114-.151.172-.226.058-.074.119-.148.18-.22.06-.073.125-.142.189-.212.063-.07.129-.138.194-.207.066-.068.128-.139.197-.205.067-.066.142-.124.212-.19.07-.065.145-.123.215-.183.074-.064.137-.136.21-.193.076-.06.154-.114.23-.167.078-.057.156-.11.234-.16.08-.052.16-.105.24-.15.084-.048.166-.097.249-.137.087-.042.177-.072.263-.107.088-.037.177-.066.266-.097.09-.031.179-.06.27-.085.09-.025.18-.063.27-.083.093-.02.188-.022.281-.038.093-.016.185-.035.28-.047.092-.012.186-.017.281-.026.093-.008.188-.015.282-.02.093-.006.187-.023.282-.026.093-.003.188.012.284.01h.282l.283-.001c.093 0 .187-.02.283-.02Zm32.579-1.3c.096.003.19.02.282.024.096.005.191-.001.283.006.096.008.189.028.281.038.095.01.189.016.281.03.095.015.189.028.28.045.094.019.187.039.276.06.094.023.185.05.273.077.093.027.182.058.269.09.091.032.177.071.262.108.088.038.172.082.254.125.085.046.172.084.251.134.08.052.152.115.226.172.076.058.144.124.212.188.07.066.139.13.201.201.06.07.115.145.17.224.053.075.107.152.156.235.046.08.101.157.142.244.041.083.07.173.106.263.034.086.08.17.111.261.029.088.045.182.071.275.025.09.039.183.061.277.02.09.046.181.063.276.018.09.027.185.041.28.014.092.042.184.053.28.012.092.02.186.029.282a8.226 8.226 0 0 1 .038.566c.004.093-.005.188-.003.284.002.093.005.188.005.284 0 .085.002.18.001.283-.001.089-.013.183-.015.284-.003.09.003.185.001.284-.003.09-.008.185-.01.284-.003.092-.012.186-.016.284-.003.091.016.187.012.285l-.01.284c-.004.098-.028.192-.031.283-.003.098.012.194.009.284-.003.1-.02.193-.022.283-.003.101-.004.195-.005.283-.002.104.009.198.009.284 0 .106-.002.209.003.308.004.107.002.21.012.31.011.105.035.205.051.303.017.105.042.204.066.3.026.104.039.208.072.301.035.1.095.186.139.275.048.092.092.195.162.29.062.084.131.17.209.257.071.078.153.153.237.233.089.075.158.148.213.215.082.102.125.19.125.269a.43.43 0 0 1-.102.3.637.637 0 0 1-.277.16 1.524 1.524 0 0 1-.412.072h-.359l-.136-.002a6.947 6.947 0 0 1-.274-.018c-.094-.008-.185-.011-.274-.023-.093-.014-.184-.026-.272-.045-.092-.019-.178-.05-.264-.075-.091-.026-.181-.044-.265-.076-.088-.033-.168-.079-.248-.12-.084-.041-.167-.08-.243-.13a2.186 2.186 0 0 1-.225-.16c-.071-.06-.126-.136-.187-.205-.062-.068-.135-.128-.187-.204a1.902 1.902 0 0 1-.137-.234c-.083.057-.163.102-.246.155-.085.053-.171.104-.254.154-.087.053-.172.104-.257.152-.088.049-.178.09-.265.135-.09.046-.178.09-.267.133-.091.043-.182.08-.271.12-.093.038-.179.091-.271.125-.094.035-.194.048-.287.078-.096.03-.188.066-.283.09-.097.026-.192.054-.287.074a5.34 5.34 0 0 1-.59.078 4.39 4.39 0 0 1-.296.01c-.101 0-.2-.012-.297-.019a3.56 3.56 0 0 1-.587-.086c-.098-.022-.2-.025-.294-.055a3.65 3.65 0 0 1-.279-.107c-.092-.038-.179-.088-.267-.134-.088-.046-.171-.1-.254-.155-.083-.054-.169-.105-.247-.167-.078-.06-.147-.133-.221-.202-.074-.068-.156-.125-.222-.198a.837.837 0 0 1-.061-.08l-.11-.165a2.776 2.776 0 0 1-.165-.246c-.05-.086-.112-.166-.154-.256-.04-.09-.057-.19-.09-.286-.032-.093-.07-.185-.094-.283a3.39 3.39 0 0 1-.053-.294c-.015-.097-.016-.196-.023-.298a4.146 4.146 0 0 1-.01-.297c0-.101-.021-.2-.015-.297.006-.1.034-.197.045-.293a3.839 3.839 0 0 1 .11-.58c.027-.096.042-.194.076-.285.035-.093.089-.178.132-.265a2.644 2.644 0 0 1 .305-.502c.059-.078.12-.155.188-.227.066-.07.141-.134.216-.199.073-.063.151-.121.232-.178.078-.057.156-.115.241-.166.083-.05.167-.1.256-.143.086-.043.174-.085.265-.124.089-.036.183-.064.277-.096.083-.03.168-.067.263-.094.085-.024.179-.035.274-.057.087-.02.175-.047.271-.065.088-.017.179-.04.274-.055.089-.014.182-.019.277-.03.09-.013.182-.032.277-.043.09-.01.184-.003.279-.011.09-.01.181-.033.276-.04.092-.007.185-.005.279-.011.092-.006.184-.023.278-.028.092-.004.185.01.28.006.092-.003.184-.018.279-.021.092-.004.184-.004.279-.006.092-.002.185.008.279.006.092 0 .184-.019.279-.02.092 0 .189.009.283.009.045-.129.001-.138.001-.275 0-.136.006-.136.006-.272l-.002-.081-.006-.11-.001-.082c0-.136.006-.136.006-.272 0-.137-.02-.137-.02-.273s.022-.136.022-.273c0-.096-.005-.19-.011-.281-.007-.097-.021-.19-.034-.28-.015-.096-.026-.19-.049-.277-.024-.094-.071-.177-.104-.262a1.853 1.853 0 0 0-.119-.252 1.48 1.48 0 0 0-.594-.578c-.079-.042-.17-.066-.261-.096a2.232 2.232 0 0 0-.268-.07c-.088-.017-.177-.047-.273-.055a3.225 3.225 0 0 0-.278-.01c-.101 0-.197.012-.286.016-.102.003-.198-.002-.285.007-.106.01-.2.032-.281.049a1.038 1.038 0 0 0-.27.092c-.109.057-.159.128-.159.216 0 .05.04.136.13.258.05.065.11.144.185.23.056.065.104.133.146.207.042.072.081.147.108.23.026.078.042.162.055.248.012.082.027.166.027.254 0 .101-.016.197-.027.288a1.77 1.77 0 0 1-.064.28 1.31 1.31 0 0 1-.106.264 1.15 1.15 0 0 1-.165.232 1.44 1.44 0 0 1-.469.316 2 2 0 0 1-.275.075c-.088.019-.182.026-.281.035-.09.008-.184.02-.284.02-.092 0-.183.01-.269-.002-.092-.011-.177-.043-.262-.067-.088-.025-.176-.046-.256-.085-.082-.038-.152-.097-.226-.148a1.659 1.659 0 0 1-.211-.169 1.65 1.65 0 0 1-.182-.196 1.444 1.444 0 0 1-.141-.23c-.04-.08-.065-.166-.091-.252-.025-.085-.062-.17-.075-.26-.011-.088 0-.179 0-.272 0-.104-.01-.207.003-.307.012-.102.038-.201.063-.3.026-.099.05-.199.088-.293.038-.094.093-.18.144-.27.049-.087.106-.17.168-.255.058-.08.12-.16.19-.237.066-.073.133-.15.209-.22.073-.067.148-.138.229-.201.079-.061.166-.114.252-.172.078-.05.151-.106.23-.152.08-.046.161-.089.243-.13a4.19 4.19 0 0 1 .249-.116c.084-.036.175-.056.26-.087.087-.032.17-.07.257-.097.088-.026.179-.038.268-.06.089-.02.178-.041.268-.057.09-.015.181-.022.272-.032.09-.01.181-.018.273-.023.09-.004.181-.017.273-.017.096 0 .19-.009.283-.007Zm38.951-.016c.1-.003.201.006.303.006.089 0 .182-.004.278.008.089.01.181.029.275.05.088.019.18.036.273.064.086.026.175.056.266.089.085.031.169.072.258.11.084.035.175.06.262.102.093.044.179.088.261.126.096.045.184.085.264.12.102.045.191.086.265.116.143.056.233.1.274.1.094 0 .228-.035.398-.091.075-.027.142-.052.206-.066.08-.017.151-.036.215-.036.1 0 .17.048.217.113.04.057.055.135.055.24 0 .086.005.182.016.289.01.087.036.18.053.282.015.09.028.184.048.283.019.09.038.183.061.281.021.09.046.182.071.279.024.095.053.184.074.272.023.095.033.19.051.276.021.098.036.19.05.278.017.1.044.19.054.276.011.105.009.2.009.281 0 .14-.039.248-.122.315a.521.521 0 0 1-.328.09c-.075 0-.155-.072-.257-.196-.059-.07-.139-.15-.206-.261-.052-.086-.103-.186-.161-.295-.042-.084-.069-.172-.111-.25-.044-.083-.099-.156-.143-.232-.048-.082-.102-.155-.148-.228-.051-.08-.088-.166-.138-.236-.056-.078-.12-.143-.175-.209-.063-.075-.119-.145-.181-.204-.07-.07-.151-.123-.226-.183-.076-.061-.15-.124-.231-.175-.082-.052-.163-.108-.249-.15a2.508 2.508 0 0 0-.268-.115c-.091-.03-.19-.037-.285-.058a2.773 2.773 0 0 0-.285-.041 2.874 2.874 0 0 0-.289-.018c-.095 0-.187-.012-.274-.007-.095.005-.186.016-.272.026-.096.012-.185.03-.269.049-.095.021-.182.05-.261.08-.092.035-.181.064-.252.111-.081.054-.135.13-.19.199a.745.745 0 0 0-.139.235.932.932 0 0 0-.027.274c0 .1-.008.201.009.298.018.097.047.193.082.287.033.091.091.173.141.26.047.084.094.17.156.252.058.076.116.156.186.23.066.069.144.13.22.198.072.062.149.124.23.185.077.057.152.12.237.176.081.053.162.108.25.159.084.049.177.082.262.13.084.05.166.102.251.15.084.05.165.105.249.154.085.049.168.1.253.148.085.05.174.089.258.138.085.049.161.113.246.161l.254.146c.084.05.174.088.259.136l.25.152.254.147c.085.048.173.09.258.139.077.06.159.112.231.173a4.365 4.365 0 0 1 .41.409c.065.073.108.163.165.239.058.078.129.145.18.226.053.082.098.169.143.253.044.087.09.172.127.262.037.089.061.183.091.276.029.091.05.186.072.28.022.095.044.188.057.285.015.094.034.19.041.288.007.096-.001.193-.001.291 0 .095-.007.186-.014.278-.007.094-.004.188-.019.278-.014.093-.048.18-.07.27-.023.09-.052.177-.082.264-.031.088-.047.181-.086.265-.04.084-.088.164-.136.243-.046.08-.107.15-.162.225-.055.074-.107.15-.169.22-.06.067-.124.134-.193.199-.065.062-.13.128-.203.188-.074.061-.155.114-.233.17-.079.056-.163.102-.245.152-.081.05-.164.1-.248.144-.086.044-.167.099-.255.137a4.097 4.097 0 0 1-.825.253 4.705 4.705 0 0 1-.571.071c-.095.006-.191-.004-.288-.004-.084 0-.174-.002-.271-.011-.084-.008-.176-.01-.271-.024-.085-.014-.175-.027-.269-.046-.084-.017-.173-.039-.265-.06-.085-.02-.169-.06-.26-.084-.084-.022-.172-.044-.262-.07-.085-.024-.177-.032-.267-.06-.087-.027-.166-.074-.249-.098-.089-.026-.177-.045-.26-.067-.09-.024-.176-.048-.259-.068-.091-.021-.178-.038-.262-.055-.092-.02-.179-.039-.262-.052-.094-.016-.184-.02-.267-.028-.096-.01-.185-.025-.267-.025-.065 0-.141.038-.231.076a1.387 1.387 0 0 0-.218.108c-.08.048-.149.094-.214.121a.601.601 0 0 1-.24.047.658.658 0 0 1-.262-.05.457.457 0 0 1-.205-.168.69.69 0 0 1-.096-.253 1.375 1.375 0 0 1-.027-.27c0-.141-.008-.141-.008-.281l.001-.084.002-.113v-.084c0-.14.016-.14.016-.28s-.01-.14-.01-.28-.008-.14-.008-.28.013-.14.013-.28l.002-.28-.001-.28c0-.14-.011-.14-.011-.28l.002-.082.011-.114.002-.083c0-.14-.018-.14-.018-.28 0-.096.031-.172.061-.237a.318.318 0 0 1 .157-.178.571.571 0 0 1 .24-.045c.072 0 .144.045.215.13.046.056.09.13.134.222.034.069.061.152.094.243.027.075.063.154.089.244.033.098.067.187.095.272.033.1.07.19.097.272.035.106.058.2.083.276.055.163.087.253.096.27.046.071.092.15.159.215.059.059.13.115.205.171.067.05.142.099.222.145.073.043.156.076.24.116.076.037.159.066.245.1.089.036.177.069.262.099.091.031.18.055.266.08.093.028.179.068.266.088.095.02.188.035.277.046.096.011.19.008.278.008.1 0 .197-.008.293-.017.098-.008.198-.003.293-.02.097-.018.19-.056.282-.083.094-.027.184-.065.274-.102.091-.039.186-.065.272-.113.088-.046.162-.106.235-.159.082-.058.152-.12.214-.186a1.01 1.01 0 0 0 .274-.493c.022-.09.024-.185.024-.284 0-.091-.012-.18-.032-.273a1.484 1.484 0 0 0-.077-.265c-.035-.082-.066-.169-.115-.252-.045-.076-.104-.148-.162-.224-.055-.07-.106-.148-.171-.219a3.267 3.267 0 0 0-.195-.196c-.064-.062-.14-.114-.213-.176-.068-.057-.13-.127-.205-.185-.071-.054-.157-.092-.234-.147-.079-.056-.153-.118-.233-.174l-.237-.168-.239-.166-.237-.168-.243-.16c-.079-.055-.154-.118-.233-.174-.08-.055-.152-.122-.231-.177-.08-.055-.163-.106-.243-.16-.08-.056-.168-.1-.247-.155-.08-.055-.147-.129-.226-.184-.08-.056-.162-.107-.242-.162-.071-.06-.145-.117-.211-.178-.069-.064-.132-.133-.194-.198-.066-.068-.136-.13-.195-.198-.062-.072-.123-.142-.178-.215-.056-.075-.095-.161-.144-.238-.051-.08-.106-.154-.149-.234-.044-.084-.076-.171-.111-.255-.037-.087-.081-.17-.109-.257-.028-.089-.036-.183-.054-.273-.02-.091-.04-.182-.05-.274-.009-.092-.022-.185-.022-.278 0-.103.016-.203.025-.3.01-.102.021-.201.041-.298.021-.1.041-.197.072-.291.032-.096.077-.185.12-.274.044-.091.078-.187.133-.27a2.421 2.421 0 0 1 .39-.457 2.98 2.98 0 0 1 .483-.353c.087-.05.181-.09.273-.134.089-.042.182-.084.277-.121.093-.036.192-.059.289-.09.094-.029.192-.056.291-.08.096-.023.194-.047.295-.066.098-.018.196-.04.298-.053.099-.012.198-.023.301-.032.098-.008.2-.005.301-.01Zm-11.115-.205c.094-.004.19.01.287.01.098 0 .197.002.294.007.099.005.197.01.294.02.099.01.196.018.292.034.099.016.194.042.289.064.096.022.193.04.286.068.095.028.189.058.282.091.092.035.187.064.277.104.09.04.172.098.259.144.088.045.176.089.261.14.083.052.166.105.247.162.081.057.158.118.236.18.077.06.148.13.222.197.073.065.153.124.224.195.069.07.132.147.199.221.063.07.12.146.18.219.06.073.117.148.173.223.057.077.118.149.171.227.052.079.095.164.143.245a5.151 5.151 0 0 1 .264.501c.04.087.091.167.126.255.036.088.07.177.1.267a6.304 6.304 0 0 1 .156.548c.021.091.027.187.044.281.017.093.041.185.053.28.013.093.03.187.038.282a6.617 6.617 0 0 1 .025.57.74.74 0 0 1-.056.311.42.42 0 0 1-.232.203 1.238 1.238 0 0 1-.283.076c-.082.013-.181.01-.293.021-.088.01-.185.02-.291.028-.091.006-.189.014-.293.02-.092.005-.19 0-.293.006-.094.004-.19.026-.293.03-.093.004-.191-.011-.293-.008-.094.003-.192.01-.293.013-.095.003-.192.014-.292.016l-.294.005c-.095.003-.193-.01-.293-.008-.096.002-.193.017-.293.019h-.293c-.097.002-.194-.003-.294-.002-.096 0-.194.01-.294.01a52.24 52.24 0 0 1-.293.003c-.096 0-.193.006-.293.007-.096 0-.193-.013-.293-.013-.096 0-.194.014-.293.014h-.293c-.097 0-.195-.008-.294-.008-.096 0-.188-.003-.278-.003-.096 0-.188.017-.276.016-.098-.001-.19-.022-.278-.023-.099-.001-.191.014-.277.013-.102-.003-.194-.015-.277-.018-.108-.004-.194 0-.27-.006.002.097-.007.188-.002.282.005.097.015.193.023.287.009.096.032.19.045.283.013.097.015.193.032.285.018.096.045.188.067.28a5.158 5.158 0 0 0 .167.547c.035.092.071.18.11.265.041.088.089.17.135.251.048.085.088.172.141.25.055.078.12.148.181.22.062.073.125.144.194.209.069.066.133.136.209.195.074.058.151.115.232.165.08.05.17.082.256.125.083.043.162.098.252.133.087.035.182.049.274.077.089.027.177.062.271.083a4.3 4.3 0 0 0 .279.056c.091.014.186.02.282.029.092.009.187.004.284.008.093.005.187.02.283.02a3.99 3.99 0 0 0 .823-.1c.088-.022.18-.038.27-.064.086-.027.172-.064.261-.095.085-.031.171-.066.257-.103.084-.035.165-.08.25-.121.082-.039.173-.064.256-.108a6.69 6.69 0 0 0 .244-.136c.079-.046.152-.107.232-.158.078-.049.161-.091.24-.145.075-.052.153-.103.231-.158.073-.054.146-.112.222-.17.073-.056.139-.124.213-.184.071-.057.143-.117.215-.178.118-.1.12-.097.238-.198l.07-.059c.055-.046.078-.064.165-.14.118-.1.104-.12.241-.19.149 0 .227.087.227.278a.93.93 0 0 1-.089.343c-.032.084-.084.166-.131.259-.042.082-.081.17-.134.259-.047.079-.095.163-.152.247-.052.078-.118.15-.177.23-.056.076-.106.16-.167.24-.057.073-.126.142-.19.22-.059.072-.113.153-.177.23l-.195.223c-.067.077-.136.147-.202.218-.069.074-.141.142-.207.21-.072.074-.136.15-.205.215-.074.072-.144.141-.215.203-.078.068-.157.128-.231.185a3.368 3.368 0 0 1-.24.172c-.082.052-.171.093-.258.14a4.535 4.535 0 0 1-.536.24c-.09.032-.179.074-.274.103-.093.028-.188.049-.284.072a6.96 6.96 0 0 1-.288.06c-.094.018-.19.043-.288.057-.095.013-.194.013-.293.023-.095.01-.193.018-.292.024-.096.007-.194.007-.293.01-.097.002-.193.007-.293.007-.099 0-.196-.001-.292-.005-.098-.004-.197.003-.293-.004-.097-.01-.193-.03-.289-.042a6.648 6.648 0 0 1-.288-.047c-.096-.019-.192-.037-.286-.06-.096-.022-.189-.05-.282-.078-.093-.028-.185-.061-.276-.094-.092-.034-.188-.055-.278-.093-.089-.04-.177-.085-.263-.129-.088-.043-.171-.095-.256-.143-.084-.05-.169-.098-.251-.152-.082-.054-.156-.118-.234-.177a4.162 4.162 0 0 1-.23-.18 4.487 4.487 0 0 1-.22-.195c-.072-.066-.147-.128-.217-.199-.067-.07-.142-.134-.208-.208-.062-.07-.119-.145-.178-.217a6.397 6.397 0 0 1-.173-.222c-.056-.075-.103-.157-.156-.234-.053-.077-.114-.15-.163-.229-.05-.08-.105-.156-.151-.238-.045-.082-.077-.172-.119-.256-.042-.084-.087-.166-.126-.252-.038-.086-.071-.174-.105-.261a5.844 5.844 0 0 1-.096-.266c-.03-.088-.054-.18-.08-.27-.026-.09-.057-.18-.079-.271-.022-.091-.044-.182-.062-.275-.018-.092-.038-.184-.053-.278-.014-.093-.024-.187-.035-.28-.01-.094-.003-.189-.01-.283-.007-.093-.021-.187-.025-.281-.003-.094-.009-.188-.009-.283 0-.098.006-.195.01-.29.004-.098 0-.196.007-.291a6.82 6.82 0 0 1 .029-.29c.011-.096.045-.19.06-.284.016-.097.029-.192.049-.286.02-.096.047-.188.072-.282.025-.093.044-.188.074-.28.028-.093.057-.185.091-.276.033-.09.078-.176.116-.265.039-.089.079-.176.122-.263.042-.086.089-.17.135-.255.046-.084.096-.167.147-.249.05-.082.1-.164.155-.244.054-.08.096-.168.155-.245.058-.077.131-.14.193-.215.061-.074.12-.15.184-.222.065-.071.12-.152.189-.221.067-.07.139-.133.209-.197.071-.066.152-.12.225-.181.072-.063.137-.137.212-.195.076-.06.164-.101.242-.156.078-.055.147-.127.227-.178.081-.051.172-.085.256-.132.083-.047.165-.095.251-.138.085-.042.173-.081.26-.12.087-.038.174-.08.263-.114.089-.034.177-.072.268-.102a6.25 6.25 0 0 1 .276-.079c.091-.025.186-.04.28-.06.093-.02.185-.044.28-.06.093-.016.187-.033.282-.044.095-.013.19-.02.286-.028.094-.008.189-.02.285-.024Zm-87.199.309c.148 0 .226.061.248.174 0 .002-.002.001-.002.004v.087l.004.12.001.087c0 .146.002.146.002.293v.381c-.002.068-.004.096-.004.206l.001.087.004.119v.38c0 .147.003.147.003.294v.087l-.002.12v.086c0 .147.004.147.004.293 0 .147-.015.147-.015.294 0 .146.008.146.008.293l.001.294c0 .146-.004.146-.004.293s.01.147.01.293v.087c.002.07.004.097.004.206 0 .147-.017.147-.017.294 0 .146.017.146.017.293s-.01.147-.01.293c.001.102-.007.202-.006.3 0 .102.004.202.005.3.001.102.02.202.02.3.002.101-.008.201-.007.3.002.101-.005.201-.004.3 0 .101.008.201.009.299l.002.3c.002.101.005.201.005.3l.003.298v.3c.001.103-.007.203-.007.3 0 .104.016.203.016.3 0 .103-.003.203-.003.299l.002.299c0 .116.014.22.033.318.023.113.054.213.103.3a.77.77 0 0 0 .214.231c.081.061.169.116.277.15.09.029.175.055.246.094a.863.863 0 0 1 .208.162.646.646 0 0 1 .134.226c.03.08.05.166.05.26a.511.511 0 0 1-.063.252.347.347 0 0 1-.195.159.71.71 0 0 1-.252.046c-.141 0-.141-.006-.282-.006s-.141-.004-.283-.004c-.035 0-.061 0-.083.002l-.115.01-.083.002c-.14 0-.14-.007-.281-.007l-.084.001-.115.004h-.084c-.14 0-.14-.01-.282-.011-.14-.001-.14-.007-.281-.008h-.084l-.115.009h-.084c-.14 0-.14-.007-.281-.009l-.281-.002c-.142-.001-.142-.003-.282-.004l-.282-.004c-.141-.001-.141.005-.282.003h-.083l-.115.003h-.167c-.066 0-.092.002-.198.001-.14-.001-.14-.02-.282-.021a.567.567 0 0 1-.258-.044.368.368 0 0 1-.186-.19c-.03-.071-.025-.163-.025-.267 0-.107.019-.206.083-.296a.833.833 0 0 1 .227-.216c.079-.05.177-.09.283-.133a.77.77 0 0 0 .26-.17.917.917 0 0 0 .181-.255c.042-.088.07-.19.096-.3.022-.096.037-.2.048-.312.009-.1.013-.204.013-.316 0-.147.003-.147.003-.293 0-.147.004-.147.004-.293 0-.147.01-.147.01-.294 0-.146-.016-.146-.016-.292 0-.147.01-.147.01-.294 0-.146.01-.146.01-.293 0-.146-.003-.146-.003-.292 0-.147-.015-.147-.015-.293 0-.147-.004-.147-.004-.293v-.293c0-.147.022-.147.022-.293 0-.147-.01-.147-.01-.293 0-.147.008-.147.008-.294 0-.145-.01-.145-.01-.292s.01-.147.01-.293c0-.147-.003-.147-.003-.293s-.007-.146-.007-.293c0-.146.012-.146.012-.292 0-.147-.018-.147-.018-.294a.924.924 0 0 0-.052-.308.714.714 0 0 0-.147-.278.906.906 0 0 0-.257-.183 1.459 1.459 0 0 0-.299-.096 2.234 2.234 0 0 1-.25-.081c-.09-.033-.176-.061-.243-.102a.657.657 0 0 1-.19-.185.426.426 0 0 1-.074-.25c0-.076.052-.166.175-.252.038-.026.125-.06.246-.126.068-.038.148-.08.242-.13.074-.04.158-.076.247-.122.076-.04.153-.09.24-.135.078-.04.163-.075.248-.12.078-.04.154-.093.24-.137.078-.04.162-.077.247-.12.08-.042.165-.09.258-.138.081-.042.164-.095.256-.141.082-.043.172-.082.263-.128.083-.042.168-.091.258-.137.084-.042.177-.076.267-.12.084-.043.174-.08.264-.124.085-.043.17-.091.26-.135l.26-.13a.741.741 0 0 1 .282-.066Zm36.459-7.427c.036 0 .063 0 .086.002l.118.01.087.002c.145 0 .145-.01.29-.01s.145.014.291.014c.036 0 .063-.001.086-.003l.118-.01.086-.001c.146 0 .146.014.291.014s.145-.008.291-.008l.086.001.118.007.086.001h.378l.059.001H103.952l.119-.007.086-.001.204.001h.086l.087-.001.118-.007.086-.001h.086l.118.004.086.001c.146 0 .146.011.291.011h.086l.118-.005h.087c.098 0 .176.029.234.093a.499.499 0 0 1 .11.238c.015.075.021.163.021.265 0 .063-.031.141-.101.23a1.63 1.63 0 0 1-.174.187c-.057.052-.124.104-.197.162a5.413 5.413 0 0 1-.245.181c-.078.055-.167.104-.257.163-.077.051-.143.112-.211.165a2.461 2.461 0 0 0-.207.173 2.352 2.352 0 0 0-.342.415c-.047.08-.092.16-.123.243-.033.085-.036.178-.052.267a1.492 1.492 0 0 0-.025.268v.385c-.001.07-.004.098-.004.21 0 .148-.015.148-.015.296 0 .149.011.149.011.298 0 .148.003.148.003.296s-.016.148-.016.297c0 .037.001.065.003.089l.01.12.002.088c0 .148-.007.148-.007.297 0 .148-.005.148-.005.297 0 .148.008.148.008.297 0 .148.009.148.009.297l.001.148.001.148c0 .149-.008.149-.008.297l.001.298-.001.088-.006.12-.002.088c0 .148.004.148.004.297s-.008.149-.008.297.015.148.015.296l.001.149.001.149c0 .148-.101.181.001.288.098.103.133.008.274.008.142 0 .142-.01.284-.01.141 0 .141.006.282.006.036 0 .062 0 .084.002l.115.007.084.002.084-.002.115-.01.084-.003c.141 0 .141.007.282.007.142 0 .142-.002.283-.002s.141.004.283.004c.141 0 .141-.012.282-.012.142 0 .142.002.283.002.142 0 .142.012.283.012.142 0 .142-.004.283-.004s.141.01.283.01c.141 0 .141-.004.283-.004.084 0 .118.002.162.004l.003-.016c.132-.044.14-.013.282.005l.05.005.068-.003c.141 0 .141-.01.283-.01.07 0 .105.005.141.01h.015c.14 0 .14-.012.279-.012.14 0 .14.019.279.019l-.049-.002c.055-.006.086-.015.183-.015h.565c.141 0 .141.017.282.017s.141.004.283.004c.141 0 .141-.008.283-.008l.083-.002c.067-.003.093-.008.198-.008.142 0 .142.003.283.003l.084.002c.067.002.093.007.199.007.141 0 .141.004.282.004s.141-.02.283-.02c.141 0 .141.016.283.016.141 0 .185.098.284-.002.1-.102-.009-.146-.009-.289s.017-.143.017-.286v-.142l.001-.143c0-.143-.014-.143-.014-.286l.001-.085.003-.116.001-.084c0-.143.006-.143.006-.286s-.018-.143-.018-.286l.002-.084.007-.116.002-.085v-.085l.003-.115v-.085l.001-.143.001-.143-.001-.085-.002-.116v-.085c0-.142-.005-.142-.005-.284 0-.143.01-.143.01-.286s-.01-.143-.01-.286l-.001-.085-.004-.115-.001-.085c0-.142.017-.142.017-.285v-.085l.002-.116.001-.17c-.001-.067-.002-.094-.002-.2l-.002-.085c-.002-.067-.008-.093-.008-.2a2.123 2.123 0 0 0-.08-.57 2.401 2.401 0 0 0-.094-.273c-.036-.088-.068-.178-.116-.264-.047-.081-.093-.166-.15-.246-.055-.076-.128-.14-.193-.214-.061-.07-.122-.145-.193-.213-.068-.065-.144-.123-.219-.185-.082-.067-.157-.133-.229-.194-.082-.069-.156-.136-.225-.198-.083-.072-.148-.148-.213-.21-.085-.081-.162-.144-.217-.207-.104-.116-.148-.2-.148-.251 0-.145.008-.26.041-.348.05-.13.138-.185.262-.185h.087l.118-.004.086-.001c.145 0 .145-.01.29-.01l.087.001.118.006.086.002h.086l.118-.002.087-.001h.204l.086-.001h.377l.059-.001h.145c.145 0 .145.007.29.007s.145-.014.291-.014c.145 0 .145.004.29.004h.436c.036.001.072.002.145.002.145 0 .145.01.29.01h.29c.146 0 .146-.011.291-.011s.145-.008.29-.008.145.01.29.01c.146 0 .146.005.29.005l.087.001.118.004.086.002c.036 0 .063-.001.086-.003l.118-.01.086-.001c.145 0 .145.006.29.006s.145-.013.291-.013c.036 0 .063.001.086.003l.117.011.087.003c.098 0 .172.03.231.094a.49.49 0 0 1 .105.236c.016.075.038.161.038.263 0 .066-.048.146-.127.242-.05.06-.107.131-.187.202-.062.054-.14.102-.22.164-.067.051-.145.1-.225.155-.071.05-.146.101-.227.154-.078.052-.141.117-.209.17-.073.058-.146.111-.209.172-.067.064-.123.135-.177.202a1.8 1.8 0 0 0-.151.223c-.047.08-.101.153-.132.236-.032.085-.044.176-.06.265a1.491 1.491 0 0 0-.021.269l-.002.086-.008.117-.002.086v.085l-.004.118-.001.086.001.086.005.117.001.086c0 .144-.006.144-.006.288l.002.29c0 .144-.003.144-.003.288l-.001.203v.086c0 .144.006.144.006.288 0 .145.016.145.016.289s-.01.144-.01.289l.001.144.001.23v.059l.001.144c0 .145.005.145.005.289s-.014.144-.014.289c0 .144.014.144.014.288v.29c0 .143-.009.143-.009.288l-.001.085c-.001.068-.005.095-.005.203 0 .144.007.144.007.289 0 .144.008.144.008.289 0 .144-.021.144-.021.288v.086l.002.117v.171c-.001.068-.002.095-.002.203 0 .036.001.063.003.086l.014.117.004.086c0 .144-.016.144-.016.289v.577c0 .143.003.143.003.288l-.001.085c0 .068-.002.095-.002.203 0 .145.013.145.013.289s-.018.144-.018.288c0 .145.01.145.01.29 0 .143.007.143.007.288 0 .144-.004.144-.004.288 0 .145-.005.145-.005.289s.01.144.01.288-.007.144-.007.29c0 .143.006.143.006.288v.288l-.001.086-.005.117-.001.086c0 .144.003.144.003.288v.086l-.002.117-.001.086c0 .144.012.144.012.288s-.005.144-.005.289l-.001.086-.005.117-.001.086c0 .097.019.193.039.289.018.094.029.193.066.286.034.088.093.167.144.254.048.08.086.172.148.253.057.074.135.135.205.208.064.068.121.148.197.216.069.062.153.114.232.175.08.063.16.119.231.175.08.066.157.125.225.182.082.069.14.149.204.207.084.076.168.128.222.188.101.11.157.197.157.249 0 .14-.035.248-.069.33-.049.12-.13.187-.252.187l-.087.001-.118.004-.086.001h-.204l-.087.001c-.145 0-.145-.012-.29-.012h-.377l-.118-.003h-.086c-.145 0-.145.013-.29.013l-.146.001a15.79 15.79 0 0 1-.231-.001l-.118-.008-.086-.002-.29.001-.087.001-.118.002h-.086c-.145 0-.145-.005-.29-.005l-.086-.001c-.068-.001-.096-.004-.204-.004-.146 0-.146.019-.291.019s-.145-.004-.29-.004c-.037 0-.064 0-.087-.002l-.117-.01-.086-.003-.087.002-.118.007-.086.002c-.145 0-.145-.006-.29-.006h-.145l-.145.001c-.146 0-.146-.002-.29-.002l-.292-.002-.085.001-.118.006-.086.001-.087-.001-.117-.007-.086-.001c-.145 0-.145.017-.291.017-.133 0-.219-.076-.274-.2a.864.864 0 0 1-.073-.352c0-.08.04-.173.117-.269.052-.065.128-.127.215-.2.067-.055.152-.103.24-.164.074-.05.146-.119.235-.172.081-.05.163-.092.235-.145.076-.057.139-.125.205-.186.069-.064.135-.128.193-.197.061-.071.122-.14.172-.217.05-.079.085-.164.124-.248.038-.085.09-.164.116-.254.033-.108.045-.21.063-.3.024-.116.049-.217.049-.302 0-.144-.008-.144-.008-.288s.007-.144.007-.288c0-.142-.007-.142-.007-.287 0-.143-.008-.143-.008-.287l.001-.143.001-.144c0-.143.014-.143.014-.287l-.001-.143v-.144l-.002-.086-.008-.116-.002-.085c0-.143.007-.143.007-.287s-.006-.144-.006-.287l.001-.085.001-.117.001-.17.001-.203v-.085l-.001-.201c0-.144-.009-.144-.009-.288v-.085c-.001-.067-.002-.094-.002-.202l.001-.085.005-.116.002-.085c0-.144-.008-.144-.008-.288 0-.143.109-.185.009-.287-.1-.102-.142.003-.284.003-.141 0-.141.006-.283.006s-.142-.017-.283-.017-.141.007-.283.007l-.282.002h-.085c-.066-.002-.092-.004-.198-.004h-.084c-.066.002-.093.004-.199.004-.141 0-.141-.008-.282-.008-.142 0-.142.016-.283.016s-.141-.01-.283-.01c-.141 0-.141.006-.283.006h-.084l-.115.003a.238.238 0 0 1-.102.001c-.123 0-.131-.003-.264-.003h-.142l-.141-.001h-.084c-.066-.001-.092-.003-.199-.003h-.095l-.059.002c-.141 0-.141.005-.282.005l-.083-.001-.115-.004-.083-.001c-.141 0-.141-.006-.282-.006-.14 0-.152.06-.285.013l.009-.015a3.253 3.253 0 0 0-.138-.002c-.141 0-.141-.004-.283-.004-.141 0-.141.012-.282.012-.142 0-.142-.01-.282-.01-.142 0-.142.009-.283.009h-.142c-.035-.001-.07-.002-.141-.002h-.366c-.066 0-.093.003-.199.003h-.084l-.057-.001h-.225l-.199.001c-.141 0-.141.005-.282.005-.142 0-.142-.017-.283-.017s-.179-.086-.279.016c-.1.102.002.14.002.283 0 .144-.004.144-.004.287 0 .145.003.145.003.288l.002.286c0 .145-.01.145-.01.288s.002.143.002.287l.001.085.002.117v.085c0 .144-.013.144-.013.287s.017.143.017.287.003.144.003.287l-.002.085-.008.117-.001.085c0 .144.011.144.011.287a.966.966 0 0 1-.003.086l-.014.116-.003.085c0 .144.019.144.019.288 0 .143-.017.143-.017.286l.001.144.001.144-.001.085v.058l-.001.144c0 .143.007.143.007.287 0 .093.011.183.03.273.018.096.052.187.088.281.034.09.074.178.125.266.048.082.089.173.152.253.057.075.129.144.199.218.065.069.13.143.206.21.071.063.152.12.232.18.08.063.151.13.222.188.08.064.153.128.221.186.082.069.165.12.229.178.084.076.156.141.211.201.102.11.154.196.154.248 0 .14-.021.253-.055.335a.265.265 0 0 1-.265.174l-.086.002-.118.01-.087.002c-.145 0-.145-.004-.29-.004-.037 0-.064 0-.087-.002l-.118-.01-.086-.001c-.146 0-.146.007-.291.007s-.145-.01-.291-.01a.96.96 0 0 0-.086.003l-.118.015-.086.003c-.146 0-.146-.01-.291-.01s-.145.004-.291.004-.146-.006-.291-.006l-.086-.002c-.068-.002-.095-.007-.205-.007-.145 0-.145.004-.29.004-.146 0-.146.013-.291.013l-.086-.002-.118-.008-.087-.002c-.036 0-.063 0-.086.002l-.118.01-.086.003c-.037 0-.064 0-.086-.002l-.118-.01-.087-.002h-.29l-.087.001-.118.007-.086.001-.145.001h-.232l-.118-.001h-.086c-.146 0-.146.005-.291.005h-.087l-.118-.004-.086-.001c-.146 0-.146.004-.29.004a.33.33 0 0 1-.227-.088.41.41 0 0 1-.107-.217 1.082 1.082 0 0 1-.022-.245c0-.085.006-.174.058-.257.043-.066.113-.124.19-.188.06-.052.13-.107.213-.157l.116-.079.109-.075c.082-.054.165-.092.233-.14.084-.057.153-.118.217-.166.089-.066.17-.112.222-.159.068-.073.118-.161.174-.244.056-.081.1-.17.145-.26.043-.089.088-.177.12-.274.031-.092.068-.186.089-.287.02-.095.019-.196.031-.298l.012-.07c.002-.145.009-.145.009-.291l-.001-.087-.007-.117-.001-.087c0-.145.016-.145.016-.29s-.021-.145-.021-.29v-.376l-.001-.205.001-.29.002-.086.008-.118.002-.086.001-.29c0-.145.003-.145.003-.29l.001-.086.002-.118v-.086c0-.146-.016-.146-.016-.29 0-.146.013-.146.013-.291s-.009-.145-.009-.29v-.29c0-.145.015-.145.015-.29a.99.99 0 0 0-.003-.086l-.011-.118-.003-.087-.001-.144-.001-.145v-.291l.002-.086.011-.117.002-.087-.002-.29-.002-.086-.008-.118-.002-.086c0-.145.013-.145.013-.29s-.004-.145-.004-.29-.004-.145-.004-.29-.005-.145-.005-.29.009-.145.009-.29l-.001-.086-.006-.118-.002-.086c0-.145.017-.145.017-.29a.99.99 0 0 0-.003-.086l-.015-.118-.003-.086c0-.145.016-.145.016-.29s-.005-.145-.005-.29v-.087l-.003-.117v-.086l-.001-.145v-.145l-.001-.087-.001-.118v-.376c0-.145.01-.145.01-.29s-.005-.145-.005-.29-.007-.145-.007-.29l.001-.085.001-.118v-.087c0-.145.008-.145.008-.29s-.004-.145-.004-.29c0-.144.006-.144.006-.29a2.45 2.45 0 0 0-.024-.299c-.014-.1-.027-.2-.053-.296a2.315 2.315 0 0 0-.1-.284 2.172 2.172 0 0 0-.13-.27c-.05-.084-.118-.159-.179-.24a3.423 3.423 0 0 0-.368-.405c-.06-.056-.11-.125-.176-.18-.08-.067-.168-.118-.239-.179-.08-.069-.156-.133-.225-.195-.08-.073-.15-.144-.215-.206-.083-.08-.143-.16-.197-.223-.102-.116-.16-.196-.16-.247 0-.145.012-.263.045-.35.05-.13.145-.2.269-.2h.29c.146 0 .146.005.292.005l.086.001.118.007.086.001c.146 0 .146-.018.291-.018.146 0 .146.008.292.008.145 0 .145-.008.29-.008h.291Zm-22.368 1.744c.101 0 .185.058.232.169a.946.946 0 0 1 .057.296c.003.145 0 .145 0 .29V71.42c0 .145-.017.145-.017.29 0 .144.018.144.018.288l-.002.29v.288c0 .144-.02.144-.02.289 0 .144.02.144.02.288 0 .145-.01.145-.01.29 0 .144.01.144.01.288s-.004.144-.004.288c0 .145-.004.145-.004.29v.086c.002.067.003.094.003.202 0 .145.007.145.007.29 0 .144-.006.144-.006.288s-.007.144-.007.289v.289c0 .143.006.143.006.288v.145l.001.144v.086l-.001.203c0 .144-.01.144-.01.288 0 .145.006.145.006.289v.144l.001.145c0 .144-.007.144-.007.288s.004.144.004.288v.375l.003.117v.086l-.001.086-.009.117-.002.086c0 .144.01.144.01.288v.086l.001.117v.086c0 .144-.004.144-.004.288v.204l.001.085c0 .145.01.145.01.289s-.007.144-.007.288v.086c-.003.068-.007.095-.007.203 0 .144.005.144.005.289 0 .144-.005.144-.005.288l-.002.29c0 .035 0 .062.003.085l.013.117.003.086v.144l.001.145v.085l-.001.203c0 .145-.012.145-.012.288 0 .145-.005.145-.005.29 0 .144-.003.144-.003.288v.086l.005.117v.086l.001.144v.144c0 .144-.004.144-.004.289s.006.145.006.289.004.144.004.288c0 .145.003.145.003.29 0 .143-.006.143-.006.287v.289c0 .102.011.195.03.28.022.098.06.183.108.258.05.08.114.146.192.2a.9.9 0 0 0 .252.115c.115.034.207.089.287.144a.614.614 0 0 1 .212.235.682.682 0 0 1 .088.31.597.597 0 0 1-.093.344c-.066.094-.17.13-.312.13-.144 0-.144.01-.289.01l-.086.002-.117.009-.086.002c-.036 0-.063-.001-.086-.003l-.117-.014-.086-.003c-.145 0-.145.02-.289.02-.145 0-.145-.006-.29-.006h-.085c-.068-.001-.095-.003-.203-.003l-.086-.001-.117-.007-.087-.001c-.144 0-.144.003-.288.003-.145 0-.145-.004-.289-.004l-.086.001-.117.006-.086.002c-.144 0-.144-.005-.29-.005-.144 0-.144.005-.287.005a13.585 13.585 0 0 1-.622-.015c-.114-.007-.22-.009-.311-.02a2.323 2.323 0 0 1-.307-.054c-.15-.04-.223-.107-.244-.173a1.056 1.056 0 0 1-.034-.31c0-.12.02-.216.063-.29.05-.088.128-.135.237-.155.12-.02.22-.048.305-.066l.09-.02a.743.743 0 0 0 .21-.065.651.651 0 0 0 .161-.244c.036-.08.072-.17.093-.28.018-.088.02-.187.028-.294.007-.091.028-.19.028-.294v-.088l-.001-.12v-.528l.001-.147v-.501l.001-.087v-.087l.002-.12v-.174l-.008-.12-.002-.087c0-.146-.009-.146-.009-.293s.02-.147.02-.294-.008-.147-.008-.294-.007-.147-.007-.294l.002-.087.006-.12.001-.086c0-.147.004-.147.004-.294s-.018-.147-.018-.294v-.293c0-.148.005-.148.005-.295v-.293c0-.147-.006-.147-.006-.294s.019-.147.019-.293c0-.037 0-.065-.002-.088l-.004-.12-.003-.173c-.004-.07-.011-.097-.011-.207 0-.037 0-.064.002-.087l.013-.12.002-.087c0-.146-.017-.146-.017-.293l.002-.294c0-.147.005-.147.005-.293 0-.037.001-.065.003-.088l.01-.12.001-.086v-.381l.001-.206c0-.147-.015-.147-.015-.294 0-.146-.007-.146-.007-.294 0-.147.01-.147.01-.293 0-.147.007-.147.007-.294v-.087l-.003-.12v-.174l.007-.12.001-.086c0-.147-.012-.147-.012-.294v-.147l.001-.146c0-.148-.005-.148-.005-.294 0-.147.008-.147.008-.294s.008-.147.008-.294c0-.095-.019-.183-.04-.263a.724.724 0 0 0-.118-.233.67.67 0 0 0-.178-.191.926.926 0 0 0-.237-.11c-.078-.026-.164-.038-.257-.05a2.008 2.008 0 0 1-.28-.064 1.176 1.176 0 0 1-.262-.111.603.603 0 0 1-.205-.194.534.534 0 0 1-.103-.267.19.19 0 0 1 .034-.064l.052-.052c.063-.04.151-.078.25-.135.072-.041.15-.096.242-.146.076-.042.156-.093.245-.14.078-.042.167-.076.255-.122.079-.041.166-.078.254-.124.08-.042.158-.094.246-.14.08-.041.158-.095.245-.14.081-.04.17-.073.257-.117.082-.042.17-.077.255-.12l.273-.138c.095-.047.178-.107.265-.15l.274-.137c.096-.047.19-.087.275-.128.087-.042.169-.078.244-.114.089-.041.172-.074.245-.108.095-.044.173-.088.24-.117.14-.06.225-.095.253-.095Zm-23.296-1.744c.036 0 .064.001.086.003l.119.014.086.003.145.001H56.254l.117-.007.086-.001h.146a24.73 24.73 0 0 0 .231 0l.118-.004h.173l.118.007.086.001h.086l.118-.002h.087c.145 0 .145.004.29.004l.29.001c.146 0 .146-.015.29-.015h.377l.118.001h.086c.098 0 .178.036.237.1.05.056.095.135.116.238.015.076.011.166.011.267a.41.41 0 0 1-.11.249c-.05.059-.127.11-.206.181-.062.055-.121.127-.201.187-.067.052-.153.09-.233.145-.07.05-.14.11-.22.164-.077.052-.145.11-.213.164-.073.057-.152.104-.215.164-.066.064-.114.143-.168.21-.06.073-.11.144-.155.22-.047.08-.101.153-.132.236a1.51 1.51 0 0 0-.069.264c-.015.087-.013.178-.013.27v.289l.001.086.003.117v.086c0 .145-.002.145-.002.289s-.014.144-.014.288c0 .145-.006.145-.006.29 0 .144.012.144.012.288s-.004.144-.004.29c0 .143.013.143.013.287 0 .145-.02.145-.02.289s.016.144.016.289c0 .036 0 .063-.002.086l-.007.117-.002.086c0 .144-.004.144-.004.288 0 .145.018.145.018.289s-.014.144-.014.288c0 .145.005.145.005.29l.001.085c.002.068.005.095.005.204 0 .143-.005.143-.005.288 0 .144.005.144.005.288v.29c0 .143-.003.143-.003.288 0 .143.005.143.005.288s-.02.145-.02.289.021.144.021.288c0 .145-.007.145-.007.29 0 .143.005.143.005.287v.086l-.001.058v.145c0 .144-.01.144-.01.289 0 .143.006.143.006.288 0 .144-.012.144-.012.288s.02.144.02.289c0 .144-.015.144-.015.288 0 .145.012.145.012.29 0 .143.003.143.003.288v.577c0 .144-.02.144-.02.288 0 .036 0 .063.002.086l.008.117.002.086c0 .144-.005.144-.005.289l-.001.085c-.003.067-.007.094-.007.203v.086l.001.117v.086c0 .144.011.144.011.288v.086l-.002.117v.374l.002.086.005.117.001.086c0 .145.003.145.003.288 0 .098.005.194.024.29a1.636 1.636 0 0 0 .204.545c.048.081.097.166.159.247.057.074.12.15.189.223.065.067.147.121.223.188.07.063.143.125.223.187l.23.176.222.185c.081.069.145.143.208.202.084.076.162.134.217.193.101.11.147.195.147.247a.928.928 0 0 1-.041.337.271.271 0 0 1-.268.176h-.086l-.118.003h-.087l-.29-.002c-.146 0-.146.007-.29.007-.146 0-.146-.008-.29-.008h-.292c-.144 0-.144.003-.29.003h-.086l-.118-.007-.173-.002c-.068 0-.095-.003-.204-.003-.145 0-.145.02-.29.02h-.086l-.118-.003-.173-.001c-.068-.002-.095-.006-.204-.006h-.29c-.146 0-.146.01-.29.01a.967.967 0 0 1-.087-.003l-.118-.015-.086-.003c-.145 0-.145.014-.29.014-.037 0-.064 0-.087-.002l-.117-.008-.087-.002c-.145 0-.145.007-.29.007h-.086l-.118-.005h-.086c-.145 0-.145.014-.29.014-.146 0-.146-.01-.29-.01h-.087l-.118-.002h-.086l-.086.001-.118.007-.086.001c-.145 0-.145-.003-.29-.003-.133 0-.217-.069-.273-.192a.866.866 0 0 1-.058-.35c0-.08.021-.175.099-.27.051-.065.132-.122.218-.195a3.16 3.16 0 0 1 .234-.174c.075-.05.152-.109.242-.163.081-.048.155-.104.226-.158.076-.055.144-.117.21-.178.07-.064.147-.117.206-.186a1.96 1.96 0 0 0 .392-.731c.032-.108.052-.208.07-.298.024-.116.034-.217.034-.303 0-.143.014-.143.014-.287l-.001-.085-.006-.117-.002-.085c0-.144.004-.144.004-.287 0-.144-.007-.144-.007-.288 0-.143.005-.143.005-.287 0-.143-.013-.143-.013-.287 0-.143.011-.143.011-.287s-.002-.144-.002-.287.007-.143.007-.287-.017-.144-.017-.287a.99.99 0 0 1 .003-.085l.015-.117.003-.085.001-.202v-.085c0-.144-.011-.144-.011-.287 0-.144-.01-.144-.01-.288 0-.143.009-.143.009-.287 0-.143-.01-.143-.01-.286 0-.144.01-.144.01-.288 0-.143.101-.184 0-.286-.099-.101-.14-.008-.281-.008-.142 0-.142.003-.284.003h-.282c-.142 0-.142-.007-.283-.007s-.141.005-.283.005l-.282.001c-.142 0-.142.015-.283.015h-.284c-.035 0-.061 0-.083-.002l-.115-.01-.083-.002h-.142l-.142-.001H51.055c-.14 0-.14.01-.282.01-.142 0-.142.003-.283.003s-.141-.02-.282-.02c-.142 0-.142.014-.283.014-.142 0-.142.01-.283.01s-.141-.015-.283-.015c-.14 0-.14.003-.282.003-.142 0-.142.009-.283.009s-.141-.01-.282-.01c-.142 0-.142-.009-.283-.009s-.141.01-.283.01c-.141 0-.141-.009-.282-.009h-.283c-.141 0-.141.003-.283.003l-.084.001c-.066.002-.092.006-.198.006-.141 0-.141-.01-.283-.01-.14 0-.14.01-.282.01-.141 0-.141-.011-.282-.011h-.283c-.142 0-.142.007-.283.007s-.181-.096-.28.005c-.1.102-.001.142-.001.286s-.003.144-.003.287l-.002.288c0 .143-.005.143-.005.287 0 .036.002.063.003.085l.013.117.003.085c0 .143-.01.143-.01.287s-.004.144-.004.287v.201l.001.086c0 .143-.002.143-.002.287s.008.144.008.287l.001.085.006.117.001.085c0 .144-.005.144-.005.288 0 .143-.017.143-.017.286l.002.288v.085l.001.058v.144c0 .143.003.143.003.287l-.001.287v.085l.001.201a1.547 1.547 0 0 0 .124.57c.035.087.067.179.119.266.047.08.106.158.168.238.057.074.118.15.188.223.065.068.14.129.215.196.07.062.138.131.218.194.08.062.152.126.224.183.08.065.162.117.231.174.08.068.15.136.214.195.084.076.15.146.205.205.1.11.145.187.145.239 0 .14-.014.247-.049.33-.049.12-.127.19-.25.19-.145 0-.145-.015-.291-.015h-.087l-.118.005h-.086l-.086.001-.118.003h-.173l-.119-.005h-.172l-.118.006-.087.001-.29.002h-.086l-.119-.005h-.086l-.086-.002-.118-.006h-.087c-.145 0-.145.009-.29.009-.146 0-.146-.01-.291-.01l-.086.001-.118.008-.087.002c-.036 0-.063 0-.086.002l-.118.005-.086.002c-.146 0-.146-.011-.29-.011l-.206.001h-.086c-.145 0-.145.004-.29.004-.146 0-.146-.016-.291-.016s-.145.022-.291.022c-.145 0-.145-.02-.29-.02-.146 0-.146-.002-.291-.002-.146 0-.146.01-.291.01s-.145.01-.29.01c-.146 0-.146-.002-.29-.002a.346.346 0 0 1-.235-.076.436.436 0 0 1-.113-.224 1.132 1.132 0 0 1-.017-.248c0-.085.024-.168.075-.25a.876.876 0 0 1 .182-.191c.061-.053.129-.108.212-.158.081-.052.16-.098.231-.144.083-.054.157-.106.226-.153.084-.058.156-.113.22-.161.09-.067.165-.12.217-.166.071-.077.125-.168.183-.255.057-.087.118-.172.163-.267a2.393 2.393 0 0 0 .188-.598c.019-.1.022-.204.032-.312.003-.145.002-.144.002-.29 0-.145.02-.145.02-.29 0-.037 0-.064-.002-.087l-.012-.118-.003-.086c0-.145.017-.145.017-.29s-.018-.145-.018-.29.005-.145.005-.29c0-.146-.008-.146-.008-.291s.007-.145.007-.29l.001-.086.006-.118v-.086c0-.145-.004-.145-.004-.29v-.086l-.005-.118v-.086c0-.037 0-.064.002-.087l.01-.118.002-.086v-.086L42.054 81v-.086c0-.145-.015-.145-.015-.29 0-.036.002-.063.003-.086l.014-.118.004-.086c0-.145-.005-.145-.005-.29v-.086l-.003-.118-.001-.172c-.003-.068-.007-.096-.007-.204 0-.146.007-.146.007-.29v-.087l-.006-.117-.001-.087c0-.145.016-.145.016-.29s-.012-.145-.012-.29v-.086l.002-.118v-.086c0-.145-.014-.145-.014-.29l.001-.086.004-.118v-.086c0-.145.01-.145.01-.29v-.086l-.006-.118-.001-.086c0-.036 0-.063.002-.086l.01-.118.001-.086c0-.145-.013-.145-.013-.29s.004-.145.004-.29.008-.145.008-.29c0-.036 0-.063-.002-.086l-.01-.118-.003-.086v-.086l-.001-.118v-.086l.001-.086.007-.118.001-.087-.001-.086-.006-.117-.002-.172-.002-.118v-.376c0-.146.011-.146.011-.29 0-.146-.011-.146-.011-.29 0-.036 0-.064.002-.086l.01-.118.002-.087.002-.29-.001-.086-.002-.118v-.086c0-.145-.008-.145-.008-.29 0-.097.002-.193-.01-.288-.012-.095-.023-.192-.047-.285-.024-.092-.067-.18-.103-.269a2.425 2.425 0 0 0-.126-.257c-.046-.082-.091-.167-.148-.246a2.65 2.65 0 0 0-.178-.225c-.061-.07-.123-.143-.194-.211-.067-.065-.14-.126-.215-.188-.081-.067-.162-.125-.233-.187a8.577 8.577 0 0 1-.65-.612c-.102-.116-.139-.205-.139-.256 0-.144.018-.256.05-.343.05-.13.127-.202.25-.202.146 0 .146.009.292.009.036 0 .064 0 .086-.002l.118-.006.087-.001.086-.001.119-.004.086-.001c.145 0 .145.006.29.006l.087.001.118.004.087.001h.29c.146 0 .146.007.291.007.146 0 .146-.016.291-.016s.145-.004.291-.004h.204l.087-.001h.291c.145 0 .145.004.29.004h.291c.146 0 .146-.002.29-.002.146 0 .146.02.292.02h.291c.145 0 .145-.01.29-.01.146 0 .146.007.291.007s.145-.004.291-.004h.086l.119.003h.086c.145 0 .145-.005.29-.005.146 0 .146.006.291.006.098 0 .169.031.228.096.05.055.083.13.104.233.016.075.031.16.031.262 0 .066-.03.151-.11.247-.05.06-.114.125-.194.195-.062.054-.145.097-.224.159-.067.051-.13.12-.211.175-.07.05-.148.099-.229.152a3.43 3.43 0 0 0-.215.16 2.53 2.53 0 0 0-.206.173 2.236 2.236 0 0 0-.18.201 1.8 1.8 0 0 0-.157.218 1.52 1.52 0 0 0-.114.246c-.032.084-.063.168-.08.258a1.52 1.52 0 0 0-.023.27c0 .148-.006.148-.006.297l.002.088.01.12.002.09-.001.087-.006.121-.001.088.002.298c0 .148.005.148.005.296v.297c0 .038 0 .065-.002.089l-.007.12-.002.088c0 .148.006.148.006.297v.088l.004.12.001.089.001.148v.149c0 .148-.007.148-.007.297v.385c.001.07.004.097.004.208v.088c.002.07.005.098.005.21 0 .036-.001.064-.003.087l-.01.121-.001.088c0 .148-.004.148-.004.297 0 .148.02.148.02.297 0 .148-.007.148-.007.296 0 .149.006.149.006.297 0 .149-.108.187-.005.293.097.103.138-.006.279-.006.141 0 .141.011.283.011.141 0 .141-.003.283-.003.141 0 .141.003.282.003h.084c.067-.001.093-.002.199-.002.142 0 .142-.008.283-.008.14 0 .14.018.283.018h.366c.066-.002.093-.004.2-.004.14 0 .14-.002.282-.002.141 0 .141-.014.282-.014.142 0 .142.014.283.014h.283c.141 0 .141-.015.283-.015l.084.001.115.004h.083c.142 0 .142.015.283.015.142 0 .142-.017.283-.017s.141.018.282.018c.142 0 .142-.015.283-.015.142 0 .142-.003.283-.003h.282c.142 0 .142.005.283.005s.141.005.283.005c.14 0 .14-.011.282-.011h.282c.142 0 .142.003.283.003h.084l.115-.002h.084c.141 0 .141.008.282.008.142 0 .142-.01.283-.01.14 0 .14.01.283.01.14 0 .14.005.282.005.142 0 .175.09.274-.013.1-.1.018-.134.018-.277 0-.143-.005-.143-.005-.286 0-.036 0-.063-.002-.085l-.009-.116-.002-.084v-.143c-.001-.036-.002-.071-.002-.143 0-.036 0-.062.002-.085l.005-.116.003-.17c.001-.066.005-.093.005-.2 0-.142-.01-.142-.01-.285s.012-.143.012-.286-.01-.143-.01-.285v-.085l-.006-.116-.001-.085c0-.035 0-.062.003-.085l.013-.116.004-.085-.002-.084-.007-.116-.001-.085.001-.084.008-.116.002-.085v-.085l-.005-.116-.002-.17-.003-.116v-.169c0-.066.003-.093.003-.2 0-.143-.008-.143-.008-.286s.01-.143.01-.286c0-.142.005-.142.005-.285a.695.695 0 0 0-.008-.097l-.031-.19c-.012-.096-.02-.192-.044-.285a2.14 2.14 0 0 0-.37-.778c-.055-.076-.11-.155-.176-.229-.062-.07-.138-.13-.209-.198-.067-.064-.133-.136-.209-.198-.082-.067-.17-.118-.241-.178-.082-.07-.155-.138-.224-.2-.083-.072-.158-.138-.223-.2-.084-.08-.149-.158-.204-.22-.104-.117-.16-.2-.16-.251 0-.144.03-.257.062-.343.05-.13.127-.19.25-.19.146 0 .146-.002.291-.002l.087-.001.118-.005h.086c.145 0 .145-.005.29-.005H53.93l.118-.004.086-.001h.086l.118.005h.173l.118-.006.086-.002c.145 0 .145.022.29.022s.145-.017.29-.017h.087l.118-.004.086-.001Zm16.308 1.749c.101 0 .178.058.225.168.031.073.05.17.058.292l.001.086v.203c0 .145-.012.145-.012.29 0 .144.014.144.014.288 0 .145.005.145.005.29v.288c0 .037-.002.064-.004.086l-.014.117-.003.086c0 .144.018.144.018.289l.002.288-.001.086-.003.117-.001.172c-.002.068-.005.095-.005.204 0 .143.011.143.011.288 0 .144-.013.144-.013.289v.288l-.002.29v.288c0 .144.012.144.012.289 0 .144-.012.144-.012.288 0 .145-.003.145-.003.29v.085c.002.068.004.095.004.202 0 .145.003.145.003.29 0 .144.003.144.003.288v.29c0 .143-.014.143-.014.288l.002.288v.289c0 .144.005.144.005.288 0 .036.001.063.003.086l.01.117.002.086-.002.086-.009.117-.001.085c0 .145.003.145.003.289 0 .145.01.145.01.289s-.006.144-.006.288v.086c-.002.068-.005.095-.005.204 0 .143-.007.143-.007.288 0 .144-.003.144-.003.288 0 .145.012.145.012.29 0 .035 0 .062-.002.085l-.006.117-.001.086c0 .144.01.144.01.288v.145l.002.144v.288c0 .145-.01.145-.01.29 0 .144.005.144.005.288l-.001.086-.006.117v.086c0 .144.015.144.015.289V84.21l-.003.117v.086c0 .144-.012.144-.012.288 0 .145.016.145.016.29 0 .144-.01.144-.01.288s.006.144.006.288c0 .145-.017.145-.017.289 0 .102.025.194.045.279.022.098.06.18.108.255.05.08.106.15.185.205.072.05.152.1.247.13.115.033.22.06.302.114a.622.622 0 0 1 .202.248c.047.092.071.193.071.312 0 .148-.013.27-.069.35-.065.093-.177.129-.32.129H71.983c-.068-.002-.095-.005-.203-.005-.145 0-.145.005-.29.005h-.085c-.067-.002-.094-.004-.202-.004h-.204l-.086.001c-.144 0-.144.006-.288.006h-.086l-.117.002h-.086c-.144 0-.144-.008-.289-.008-.144 0-.144.014-.288.014-.145 0-.145-.011-.29-.011-.109 0-.212-.006-.31-.008a9.526 9.526 0 0 1-.31-.013c-.116-.008-.22.004-.312-.008a2.185 2.185 0 0 1-.307-.055c-.15-.04-.243-.099-.264-.164-.02-.057-.01-.165-.01-.317a.59.59 0 0 1 .055-.292.339.339 0 0 1 .238-.174c.12-.02.226-.02.31-.038a.944.944 0 0 0 .297-.096.639.639 0 0 0 .174-.234c.036-.08.068-.176.088-.284.018-.088.03-.187.04-.294a4.246 4.246 0 0 0 .007-.384l-.003-.12v-.087c0-.147-.01-.147-.01-.294 0-.037.001-.064.003-.087l.01-.12.002-.087c0-.147-.01-.147-.01-.294s.012-.147.012-.293c0-.147-.014-.147-.014-.295 0-.146.006-.146.006-.293s-.012-.147-.012-.294.013-.147.013-.294-.009-.147-.009-.294.008-.147.008-.293v-.088l.002-.12v-.087c0-.146-.012-.146-.012-.293s.008-.147.008-.294v-.087l-.003-.12v-.174l.002-.12.001-.087c0-.146-.009-.146-.009-.293s.006-.147.006-.293c0-.037 0-.065-.002-.088l-.006-.12-.001-.087c0-.146.002-.146.002-.293s.02-.147.02-.293c0-.037 0-.065-.002-.088l-.006-.12-.001-.087c0-.146.008-.146.008-.293s-.016-.147-.016-.294.005-.147.005-.293c0-.147.012-.147.012-.294s-.003-.147-.003-.293a1.17 1.17 0 0 0-.003-.088l-.012-.119-.003-.087c0-.147.016-.147.016-.294 0-.036 0-.064-.002-.087l-.01-.12-.002-.086c0-.147.017-.147.017-.294 0-.146-.014-.146-.014-.294 0-.147-.006-.147-.006-.293 0-.037.001-.064.003-.088l.012-.12.002-.086c0-.147-.003-.147-.003-.294s.009-.147.009-.293c0-.148-.02-.148-.02-.294 0-.147.016-.147.016-.294s-.008-.147-.008-.293c0-.096-.011-.183-.031-.263a.705.705 0 0 0-.29-.427.955.955 0 0 0-.236-.116 1.439 1.439 0 0 0-.257-.06c-.103-.014-.2-.016-.283-.04a1.149 1.149 0 0 1-.265-.112.645.645 0 0 1-.22-.186.542.542 0 0 1-.082-.28c.024-.067.031-.068.08-.119.061-.04.148-.083.247-.14.073-.041.153-.09.246-.142.075-.04.162-.079.252-.127l.247-.135.252-.13c.08-.04.167-.078.254-.123.08-.042.16-.094.246-.139.082-.041.169-.078.256-.122.08-.042.163-.088.249-.132.088-.044.176-.083.259-.124l.257-.125c.09-.044.173-.09.255-.131.09-.044.175-.09.255-.129l.26-.12c.095-.046.178-.095.256-.13.1-.047.194-.072.266-.104.15-.064.235-.11.264-.11Zm53.048 12.01c-.101 0-.202.014-.301.022-.101.007-.203.01-.301.025-.1.017-.193.06-.29.085-.097.026-.197.043-.291.077-.094.035-.182.087-.272.131-.09.044-.18.088-.267.141-.085.053-.166.11-.248.172-.083.06-.166.117-.239.182a2.512 2.512 0 0 0-.211.216c-.067.078-.119.163-.174.247-.055.085-.115.166-.157.257a2.074 2.074 0 0 0-.16.583c-.012.099-.03.2-.03.303 0 .095.024.185.034.273.011.094.016.185.039.272.023.09.052.177.088.26.037.084.072.17.122.246.049.075.107.149.169.216.063.066.142.113.213.165.072.053.15.093.232.132.079.038.156.087.244.112.083.023.173.027.265.038.085.011.174.02.266.02.102 0 .202.009.297.002a3.38 3.38 0 0 0 .293-.036c.101-.016.198-.041.289-.067.099-.027.193-.058.28-.096.094-.04.173-.1.255-.152.084-.054.16-.116.231-.183.072-.068.144-.135.203-.216.056-.08.115-.16.159-.252.042-.088.07-.184.1-.282.028-.092.044-.19.062-.293.017-.094.051-.19.059-.294.008-.096.005-.196.005-.3 0-.136-.003-.136-.005-.273-.002-.136.007-.136.007-.273a.879.879 0 0 0-.003-.081l-.012-.111-.002-.08-.001-.137-.001-.136c0-.137.021-.137.021-.273s-.018-.136-.018-.273c0-.136.051-.143.005-.271-.103-.02-.207-.032-.314-.046-.105-.012-.211-.033-.319-.04-.105-.005-.213-.012-.322-.012Zm-17.738-2.392c.133-.03.137-.008.276.004.135.012.136.009.272.009.137 0 .137-.017.273-.017.137 0 .137.007.274.007.136 0 .136-.006.273-.006l.081.001.111.006.081.002c.137 0 .137-.009.273-.009.137 0 .137.021.273.021s.143-.053.271-.005c-.029.09-.05.178-.082.267a7.448 7.448 0 0 1-.334.786c-.041.086-.087.168-.131.252-.044.084-.092.166-.139.248-.047.083-.092.166-.142.246-.05.081-.11.155-.162.233-.053.078-.113.152-.169.228-.056.076-.101.162-.159.236-.059.074-.123.144-.183.216a6.802 6.802 0 0 1-.191.217c-.065.07-.128.143-.196.21-.068.068-.133.138-.204.202-.071.065-.15.12-.223.182-.073.06-.151.118-.227.175a5.55 5.55 0 0 1-.232.168c-.079.055-.151.119-.232.17-.082.05-.172.085-.255.13-.084.047-.165.098-.251.14-.085.043-.173.08-.26.12a5.532 5.532 0 0 1-.264.109c-.088.035-.174.08-.265.11-.089.03-.186.043-.278.07-.091.027-.183.049-.276.073-.092.023-.179.045-.273.065-.012-.064-.03-.118-.03-.18 0-.147.008-.147.008-.294v-.088l.001-.12.001-.175v-.06l.001-.442c0-.146.01-.146.01-.294 0-.147-.009-.147-.009-.294 0-.148.007-.148.007-.295s.003-.147.003-.294l-.001-.147-.001-.147c0-.148-.055-.155-.014-.296.093-.022.189-.056.284-.087.092-.03.186-.06.278-.098.089-.037.182-.071.271-.115.087-.043.168-.101.255-.15.085-.047.18-.08.263-.133.084-.052.167-.106.248-.161.081-.056.157-.12.235-.18l.116-.093.112-.095c.077-.065.145-.136.216-.202.074-.068.155-.125.222-.195.071-.073.131-.158.194-.231Zm44.932-2.487c-.092 0-.184.016-.274.025-.091.01-.184.011-.273.03-.09.019-.177.052-.264.08-.086.029-.168.07-.252.108a2.443 2.443 0 0 0-.245.124c-.079.046-.152.099-.228.154-.074.052-.153.1-.224.161a3.664 3.664 0 0 0-.384.392c-.061.071-.125.136-.177.21-.053.075-.084.164-.129.241-.046.08-.105.152-.142.235a2.44 2.44 0 0 0-.099.256c-.027.088-.044.178-.061.269-.017.089-.013.182-.02.274-.008.09-.026.18-.023.273.001.072-.034.083.011.14.072.026.168.047.294.066.089.013.19.024.305.034.093.008.195.027.305.032.096.005.198.004.308.007l.307.004c.098.002.2-.006.307-.006.097 0 .196.01.295.01.097-.001.195-.011.295-.013l.295-.003c.097-.002.195.015.295.012.098-.003.195-.02.294-.023h.296c.097-.003.195-.024.294-.028.097-.005.197.011.296.007.097-.004.195-.013.294-.018.098-.005.196-.014.295-.02.098-.005.195-.026.294-.031.097-.007.196-.002.295-.008.098-.007.2-.008.299-.014-.008-.1-.024-.2-.036-.296-.012-.099-.014-.198-.03-.291-.018-.1-.05-.192-.073-.285-.023-.097-.057-.189-.087-.279-.031-.095-.047-.192-.084-.28-.039-.092-.089-.176-.135-.26a2.5 2.5 0 0 0-.152-.25 2.354 2.354 0 0 0-.177-.231 2.213 2.213 0 0 0-.211-.2c-.074-.064-.147-.129-.228-.182-.081-.052-.174-.084-.262-.126-.086-.042-.171-.089-.263-.122-.089-.03-.181-.066-.277-.089-.091-.021-.19-.02-.288-.033-.093-.014-.188-.02-.287-.027-.094-.006-.19-.03-.289-.03ZM86.006 64c.099 0 .195.005.29.006.098.001.195.007.29.009l.288.011c.098.004.195.007.29.012.097.005.194.004.289.011.098.007.193.025.287.033l.288.032c.096.01.194.009.288.021.097.013.192.035.285.05.097.015.193.028.286.045.097.018.19.039.283.06.096.021.187.056.279.08.094.025.192.032.283.06.094.028.185.064.273.096.093.033.177.084.264.121.09.038.183.068.268.11.087.045.177.084.258.132.085.05.157.118.235.173.08.057.162.108.235.17.074.064.14.136.205.205.067.072.141.137.2.214.058.077.107.163.157.246.05.084.086.175.126.264.04.088.07.18.102.273.03.091.075.18.097.276.022.094.042.19.056.289.013.095.02.192.027.292.006.096-.005.194-.005.293 0 .101.001.197-.002.288-.004.1-.008.196-.018.287a2.784 2.784 0 0 1-.042.283c-.021.095-.061.182-.094.271-.034.088-.053.183-.101.27-.044.08-.106.153-.165.235-.054.076-.096.156-.146.224-.056.075-.123.134-.178.198-.061.07-.12.133-.187.187-.07.054-.135.116-.22.151a1.11 1.11 0 0 1-.258.064c-.08.014-.168.012-.265.012-.098 0-.19.007-.278.004a3.301 3.301 0 0 1-.277-.025c-.093-.013-.181-.04-.27-.065a1.893 1.893 0 0 1-.26-.096c-.08-.035-.171-.061-.256-.111a3.588 3.588 0 0 1-.234-.154c-.093-.065-.168-.132-.238-.193a1.394 1.394 0 0 1-.207-.224.992.992 0 0 1-.153-.266c-.032-.092-.034-.195-.045-.305a3.119 3.119 0 0 1-.013-.306c0-.1-.002-.2.015-.301.017-.097.049-.192.082-.29.03-.093.07-.185.114-.279.041-.087.083-.178.137-.267a3.526 3.526 0 0 1 .352-.487c.063-.075.138-.15.209-.225-.083-.037-.183-.065-.276-.102a8.644 8.644 0 0 0-.27-.098c-.09-.03-.18-.061-.273-.09-.09-.029-.179-.068-.272-.095-.092-.026-.186-.047-.279-.07-.093-.025-.183-.061-.276-.083-.094-.022-.192-.021-.285-.04-.095-.02-.186-.06-.278-.075a8.231 8.231 0 0 0-.284-.047c-.1-.014-.198-.003-.287-.012-.105-.009-.2-.02-.287-.02-.09 0-.184-.01-.277-.005-.092.004-.183.027-.276.036-.092.008-.185.01-.277.02-.092.012-.184.022-.276.037-.09.015-.18.044-.27.062-.091.018-.183.03-.273.052-.09.021-.183.034-.272.059-.09.025-.18.046-.268.074-.09.029-.173.072-.259.103a6.161 6.161 0 0 0-.258.103c-.087.036-.17.077-.253.116-.085.04-.175.069-.254.113-.084.045-.161.098-.238.147-.081.051-.147.118-.22.172-.077.059-.156.113-.226.18a3.01 3.01 0 0 0-.38.436 3.286 3.286 0 0 0-.163.24c-.05.082-.101.164-.146.251a3.741 3.741 0 0 0-.121.265c-.038.089-.068.182-.1.273a4.784 4.784 0 0 0-.088.278c-.025.094-.059.186-.08.28-.02.096-.022.195-.037.291-.014.097-.04.19-.05.287-.01.098-.003.196-.008.292-.005.098-.022.195-.022.292 0 .097.012.195.018.291l.013.146.017.145c.013.097.019.195.038.29.02.094.054.186.08.28.027.093.06.185.093.276.033.092.053.188.093.277.04.089.091.171.137.257.045.086.084.176.135.259.051.081.124.15.18.228.057.078.111.158.174.233.064.078.127.156.199.226.072.07.151.13.228.194.078.063.149.136.231.192.083.056.176.096.263.146.086.05.168.11.258.155.088.044.185.074.276.113.092.04.182.084.275.12.094.035.187.072.281.104.094.032.192.056.286.087.096.03.191.06.286.088.067.024.162.062.283.097.085.025.183.045.291.07a5.283 5.283 0 0 0 .59.098c.095.01.194.028.298.034.096.005.196-.002.3-.002.1 0 .197-.01.29-.008.102.001.199.01.292.014.101.005.198.018.29.026.102.008.2.01.29.022.104.016.2.038.285.062a1.2 1.2 0 0 1 .272.104.58.58 0 0 1 .214.198.525.525 0 0 1 .062.282.634.634 0 0 1-.041.266.709.709 0 0 1-.16.22c-.06.057-.142.095-.228.143-.073.04-.147.095-.238.129-.079.029-.165.057-.257.082-.082.021-.172.032-.266.05-.084.015-.173.03-.265.042-.086.012-.175.02-.268.03a2.449 2.449 0 0 1-.282.025c-.08.004-.175.008-.284.01h-.284c-.088.002-.183.007-.283.008-.09.001-.184-.006-.284-.005-.09 0-.186.007-.284.007-.092 0-.186.003-.284.003-.092 0-.186-.013-.284-.013-.096 0-.19.014-.287.017-.096.002-.192-.005-.288 0-.095.005-.19.025-.285.033-.095.007-.192.009-.287.02l-.143.01-.143.014c-.095.014-.19.033-.283.05-.095.017-.188.043-.28.063-.095.02-.186.047-.28.071-.092.024-.19.032-.281.059-.092.028-.177.079-.267.111-.09.032-.186.049-.274.086-.09.036-.177.078-.263.118-.087.041-.169.092-.254.138-.084.046-.17.086-.253.138-.081.05-.165.098-.244.154-.078.056-.148.124-.222.185-.075.061-.144.127-.214.194-.07.065-.142.13-.207.202-.041-.145-.001-.15-.001-.302 0-.15-.005-.15-.005-.302 0-.15.01-.15.01-.302l.002-.09.005-.122.001-.09c0-.037 0-.066-.002-.09l-.01-.122-.002-.09c0-.15.007-.15.007-.3 0-.151-.045-.157-.011-.305.081-.05.176-.09.263-.142.082-.049.16-.11.249-.16.082-.047.172-.086.261-.135.085-.045.164-.104.254-.15.086-.044.18-.08.27-.124-.074-.061-.145-.126-.215-.184-.074-.061-.15-.114-.221-.173l-.214-.181-.215-.182c-.073-.063-.15-.118-.218-.176-.075-.063-.133-.133-.2-.19-.028-.139.004-.14.004-.281 0-.141-.008-.141-.008-.282l-.002-.083-.005-.115-.002-.083v-.281c0-.14.002-.14.002-.282l.001-.083.006-.115.002-.083c0-.14-.016-.14-.016-.281v-.084l.005-.114v-.167l-.004-.114-.001-.084.001-.084.006-.114.002-.084c0-.035 0-.061-.002-.083l-.006-.114-.001-.083c0-.141.03-.142.021-.282l-.022-.001c-.016-.11-.055-.2-.088-.281a.81.81 0 0 0-.149-.249.667.667 0 0 0-.233-.169.72.72 0 0 0-.282-.06c-.056 0-.105-.003-.26.054a4.397 4.397 0 0 0-.25.1c-.07.031-.15.073-.245.117-.072.034-.154.063-.244.106-.04-.02.01-.04.01-.086 0-.099-.014-.197-.008-.294.005-.099.018-.197.03-.293.01-.098.023-.195.04-.291.016-.097.032-.194.054-.29.022-.095.043-.192.07-.285.028-.094.068-.185.102-.276.034-.092.074-.182.113-.271.038-.09.08-.178.124-.266.044-.087.078-.18.127-.265.05-.084.114-.16.168-.241.053-.081.103-.165.162-.245.057-.078.12-.152.182-.229.061-.075.124-.149.19-.223.064-.071.122-.151.19-.222.068-.069.15-.124.222-.192.071-.068.147-.133.22-.198.074-.066.15-.13.225-.193.077-.063.143-.14.221-.199.08-.06.163-.112.245-.168l.122-.083.125-.081a8.462 8.462 0 0 1 .51-.301c.086-.047.178-.083.266-.127.088-.044.173-.093.264-.135.089-.04.182-.072.273-.11.092-.037.184-.071.277-.105a8.52 8.52 0 0 1 .278-.1c.092-.032.182-.076.277-.104.094-.028.188-.059.283-.085.095-.025.191-.043.288-.066.087-.022.178-.036.27-.056.09-.018.178-.048.271-.063.09-.015.183-.01.277-.022.09-.012.181-.021.275-.031.09-.009.18-.025.275-.032.09-.007.182-.017.276-.023.09-.005.183-.017.277-.02.09-.004.183.01.277.009.09-.002.183-.017.277-.017Zm20.02 6.022c.092.039.183.065.273.108.089.043.18.083.269.13.087.047.172.1.257.15.086.05.167.11.251.163.084.054.174.099.255.157.082.057.15.132.23.193.078.06.155.123.232.188.076.063.156.123.231.19.074.066.15.13.222.2.072.069.149.133.219.206.07.07.126.154.194.229.067.073.144.138.21.214.062.071.107.158.165.234.056.075.121.146.173.227.051.08.091.165.138.25.046.082.103.16.145.248.04.084.069.176.106.266.036.087.066.177.098.269.031.089.069.177.097.27.026.09.051.182.074.277.024.09.044.184.065.279.019.092.046.184.063.28.016.093.015.19.029.286.014.094.021.189.032.285.011.094.029.188.038.284.008.094.023.19.029.286.006.095.012.19.016.287.003.095.004.19.006.287.002.094-.005.19-.005.287 0 .134.006.277.001.406-.125.058-.142-.005-.281-.005-.139 0-.139.005-.278.005s-.139-.008-.278-.008-.139.008-.278.008a.89.89 0 0 1-.082-.003l-.113-.015-.082-.003c-.139 0-.139.005-.278.005-.138 0-.149.06-.279.014.003-.098.001-.206.002-.305.003-.099.005-.198.005-.298v-.298c0-.098.003-.197.003-.298 0-.096 0-.192-.005-.287-.004-.096-.016-.19-.026-.285-.008-.096-.011-.192-.025-.285-.015-.096-.025-.191-.045-.284-.021-.094-.059-.183-.085-.274a4.749 4.749 0 0 0-.08-.275 4.123 4.123 0 0 0-.105-.266c-.038-.088-.082-.172-.125-.256-.041-.083-.088-.162-.135-.245-.044-.08-.085-.164-.137-.243-.05-.076-.101-.153-.161-.228a3.103 3.103 0 0 0-.183-.21c-.063-.065-.139-.117-.212-.18-.067-.059-.129-.129-.207-.186-.079-.056-.161-.106-.239-.16-.081-.056-.16-.111-.239-.161a4.448 4.448 0 0 0-.25-.145c-.087-.047-.178-.076-.265-.112-.092-.037-.177-.085-.266-.107a1.23 1.23 0 0 0-.285-.04c-.089 0-.193-.003-.305-.004-.099-.002-.205.016-.309.02-.017-.004.001-.027.001-.045 0-.096.015-.189.041-.279.025-.088.064-.174.113-.257.047-.076.103-.151.17-.223.061-.066.135-.122.212-.184.068-.056.138-.118.22-.172.093-.062.184-.115.266-.173a3.515 3.515 0 0 0 .492-.389Zm-6.105.872a2.126 2.126 0 0 1 .46.744 1.75 1.75 0 0 1 .107.574c0 .15-.01.15-.01.3v.09l-.003.122-.001.09.001.149.001.15c0 .15.014.15.014.3l-.002.09-.011.121-.002.09c0 .15.006.15.006.3v.089l-.003.122v.389c0 .15.012.15.012.3s-.018.15-.018.3v.089l-.003.122v.389c0 .15.069.162.018.303a2.243 2.243 0 0 1-.285-.114 2.19 2.19 0 0 1-.493-.334 2.478 2.478 0 0 1-.21-.213c-.07-.078-.125-.165-.183-.25-.06-.084-.12-.166-.17-.257-.048-.09-.086-.186-.125-.284a3.182 3.182 0 0 1-.165-.596c-.016-.1-.043-.201-.051-.306-.008-.101-.017-.205-.017-.311 0-.098.01-.194.016-.288.007-.097.025-.192.04-.286.014-.095.02-.192.042-.285.023-.094.068-.18.099-.27.03-.091.066-.179.105-.267.04-.087.075-.176.122-.26.046-.083.093-.167.147-.247.053-.078.103-.16.163-.236.06-.073.134-.135.2-.205.065-.069.128-.148.2-.214Zm-36.51.374a1.818 1.818 0 0 1 .527.073c.085.026.165.068.245.108.077.04.158.082.23.136.07.053.131.12.195.184.064.066.12.136.172.207.053.073.108.145.148.224.04.08.063.168.09.254.026.085.043.172.056.263a1.836 1.836 0 0 1-.053.803c-.027.088-.064.17-.104.25-.04.08-.082.16-.136.235a1.998 1.998 0 0 1-.371.39 1.753 1.753 0 0 1-.471.254c-.084.028-.173.033-.263.047-.086.013-.174.027-.266.027a1.523 1.523 0 0 1-.53-.084c-.085-.028-.172-.054-.252-.097a1.621 1.621 0 0 1-.231-.142c-.07-.054-.127-.127-.193-.193-.065-.067-.136-.125-.19-.196-.055-.074-.095-.156-.138-.236-.041-.081-.068-.168-.095-.255a1.63 1.63 0 0 1-.065-.263c-.013-.089-.037-.178-.037-.272 0-.093.016-.184.029-.271.013-.091.041-.177.069-.262.028-.087.056-.172.098-.252a1.762 1.762 0 0 1 .322-.433 1.684 1.684 0 0 1 .435-.317c.08-.04.165-.066.251-.093.085-.028.169-.062.259-.075.087-.012.177-.014.268-.014ZM46.861 222c3.129 0 5.653 1.696 5.653 4.414 0 1.858-1.043 3.23-1.454 3.23-.384 0-2.36-1.184-2.36-1.533 0-.135.384-.755.384-1.374 0-1.13-.796-1.938-2.168-1.938-1.344 0-2.305.888-2.305 2.207 0 1.401 1.537 2.235 3.54 3.231l.472.239.472.242c2.51 1.3 4.875 2.794 4.875 5.522 0 3.472-3.075 5.76-7.163 5.76-4.008 0-6.807-1.965-6.807-5.491 0-2.262 1.428-4.011 1.756-4.011.44 0 2.334 1.292 2.334 1.642 0 .215-.66.915-.66 2.1 0 1.75 1.483 2.934 3.486 2.934 2.086 0 3.403-1.212 3.403-2.854 0-1.561-1.372-2.449-4.39-3.876-2.635-1.238-4.886-2.557-4.886-5.518 0-2.772 2.443-4.926 5.818-4.926Zm86.476 0c3.294 0 5.38 2.207 5.38 5.06 0 2.827-2.168 5.007-4.967 5.761a1.9 1.9 0 0 1-.522.081c-.357 0-1.208-2.127-1.208-2.477 0-.107.082-.188.22-.242 1.921-.754 3.101-1.749 3.101-3.257 0-1.157-.713-1.992-2.058-1.992-2.799 0-4.83 3.634-4.83 7.537 0 3.983 2.634 6.595 6.175 6.595 2.559 0 4.527-1.277 5.585-2.995a8.494 8.494 0 0 1-.042-.854c0-3.769 2.471-6.596 5.874-6.596 1.728 0 2.936.62 3.787 1.373l.083-.027v-.349c0-.404.274-.647.631-.647h2.113c.411 0 .659.243.659.7 0 .512-.302 4.415-.302 6.542 0 1.211.494 2.207 1.454 2.207 1.342 0 2.482-1.657 3.13-3.146l-.001-5.63c0-.403.219-.672.631-.672h2.196c.439 0 .686.242.686.7 0 1.507-.138 5.383-.138 6.406 0 1.373.467 2.342 1.592 2.342 1.51 0 2.8-1.938 3.294-3.311.055-.135.109-.215.274-.215.247 0 1.866.726 1.866 1.023 0 .08-.027.188-.055.269-.768 2.315-2.799 5.168-6.147 5.168-1.82 0-3.114-.768-3.75-2.182-1.026 1.193-2.505 2.182-4.483 2.182-1.976 0-3.404-.916-3.404-2.476v-.27l-.109-.026c-.687 1.48-2.223 2.772-4.611 2.772-1.882 0-3.38-.875-4.291-2.34-1.498 1.691-3.881 2.986-6.989 2.986-5.571 0-9.358-3.741-9.358-9.475 0-5.815 3.457-10.525 8.534-10.525Zm-38.723.565c.466 0 .686.269.686.727 0 1.777-.356 10.148-.356 12.948 0 1.237.438 2.18 1.537 2.18 1.412 0 2.6-1.834 3.184-3.148l-.001-5.628c0-.403.22-.672.631-.672h2.196c.439 0 .685.242.685.7 0 1.507-.136 5.383-.136 6.406 0 1.373.466 2.342 1.591 2.342 1.168 0 2.205-1.161 2.843-2.322a7.17 7.17 0 0 1-.071-1.016c0-3.715 2.745-6.461 6.834-6.461 3.924 0 6.476 2.746 6.476 6.246 0 3.203-2.305 6.487-6.861 6.487-2.334 0-4.174-.943-5.28-2.467-1.075 1.378-2.641 2.467-4.709 2.467-1.816 0-3.108-.764-3.746-2.172-1.074 1.229-2.585 2.172-4.46 2.172-2.278 0-3.87-1.05-3.87-2.665v-.215l-.11-.027c-.685 1.426-2.195 2.907-4.555 2.907-1.904 0-3.387-.864-4.298-2.285-1.072 1.298-2.606 2.285-4.594 2.285-2.224 0-3.595-1.158-3.595-2.746 0-.134 0-.35.027-.43l-.11-.028c-.74 1.589-2.278 3.204-4.748 3.204-1.77 0-2.983-.814-3.588-2.197-1.083 1.23-2.669 2.197-4.864 2.197-2.992 0-5.023-1.938-5.023-4.845v-4.819h-.713c-.412 0-.604-.135-.604-.538v-1.508c0-.296.137-.511.494-.511h.823v-3.069c0-.457.248-.726.66-.726h2.085c.439 0 .658.269.658.726v3.123c.879-.027 1.921-.054 2.58-.054.247 0 .44.135.44.431v1.642c0 .377-.165.484-.467.484-.632 0-1.646-.027-2.553-.027v3.5c0 2.046.55 3.257 2.333 3.257 1.933 0 3.177-1.905 3.705-3.2v-5.549c0-.484.247-.7.686-.7h2.14c.467 0 .687.27.687.674 0 1.669-.137 4.441-.137 6.245 0 1.695.41 2.53 1.647 2.53 1.92 0 3.567-3.769 3.567-7.834v-.915c0-.43.192-.7.659-.7h2.168c.466 0 .686.243.686.7 0 .477-.118 2.201-.2 3.954l-.023.553c-.03.735-.052 1.453-.052 2.061 0 1.185.494 2.181 1.51 2.181 1.133 0 2.112-1.184 2.738-2.297a8.758 8.758 0 0 1-.049-.933c0-3.526 2.278-6.569 5.956-6.569 1.701 0 3.239.808 4.089 1.454l.11-.026v-6.784c0-.458.22-.7.631-.7h2.031Zm19.568 8.749c-2.058 0-3.211 1.857-3.211 3.741 0 2.046 1.207 3.607 3.073 3.607 2.004 0 3.075-1.776 3.075-3.903 0-1.911-.989-3.445-2.937-3.445Zm-25.331.242c-2.004 0-3.513 1.588-3.513 3.822 0 1.858 1.015 3.042 2.497 3.042 2.416 0 3.705-3.473 3.705-5.68-.576-.539-1.564-1.184-2.69-1.184Zm58.374 0c-2.004 0-3.513 1.588-3.513 3.849 0 1.803 1.016 3.015 2.443 3.015 2.579 0 3.76-3.634 3.76-5.68-.577-.539-1.565-1.184-2.69-1.184Zm-45.75-8.345c1.016 0 1.866.565 1.866 1.722 0 1.105-.741 1.885-1.976 1.885-1.07 0-1.81-.727-1.81-1.857 0-1.023.794-1.75 1.92-1.75Zm57.935 0c1.016 0 1.866.565 1.866 1.722 0 1.105-.74 1.885-1.976 1.885-1.07 0-1.811-.727-1.811-1.857 0-1.023.796-1.75 1.921-1.75ZM300.646 103.444c.449 0 .876.059 1.281.178.408.118.804.289 1.19.514v2.713c-.286-.249-.6-.46-.937-.637a2.311 2.311 0 0 0-1.085-.261c-.438 0-.781.122-1.03.365-.251.242-.375.584-.375 1.02 0 .387.105.718.32 1.002.211.279.474.547.786.804.312.256.651.509 1.021.766.367.257.708.551 1.02.89.312.336.575.73.787 1.177.213.448.317.992.317 1.629 0 .622-.085 1.204-.262 1.738a3.818 3.818 0 0 1-.787 1.396 3.692 3.692 0 0 1-1.283.925c-.504.225-1.083.337-1.732.337-.4 0-.817-.059-1.255-.179a3.417 3.417 0 0 1-1.144-.532v-2.658c.323.226.656.407.995.544.335.137.71.205 1.124.205.449 0 .828-.137 1.142-.411.312-.273.468-.65.468-1.123 0-.274-.051-.506-.152-.7a2.022 2.022 0 0 0-.383-.525 3.636 3.636 0 0 0-.523-.431c-.194-.13-.391-.265-.592-.402-.398-.275-.76-.547-1.084-.823a4.429 4.429 0 0 1-.826-.907 3.86 3.86 0 0 1-.514-1.095 4.733 4.733 0 0 1-.179-1.365c0-.563.08-1.091.244-1.591.161-.499.396-.938.702-1.32.305-.38.689-.681 1.154-.907.461-.224.992-.336 1.592-.336Zm64.338 0c.45 0 .876.059 1.282.178.405.118.803.289 1.19.514v2.713a4.867 4.867 0 0 0-.937-.637 2.326 2.326 0 0 0-1.085-.261c-.44 0-.781.122-1.032.365-.25.242-.373.584-.373 1.02 0 .387.104.718.318 1.002.211.279.474.547.786.804.312.256.651.509 1.02.766.37.257.709.551 1.023.89.312.336.573.73.786 1.177.211.448.32.992.32 1.629 0 .622-.089 1.204-.265 1.738a3.845 3.845 0 0 1-.786 1.396 3.702 3.702 0 0 1-1.283.925c-.507.225-1.084.337-1.733.337-.4 0-.819-.059-1.256-.179a3.45 3.45 0 0 1-1.143-.532v-2.658c.326.226.655.407.994.544.337.137.712.205 1.125.205.448 0 .828-.137 1.141-.411.312-.273.468-.65.468-1.123a1.52 1.52 0 0 0-.148-.7 2.127 2.127 0 0 0-.385-.525 3.592 3.592 0 0 0-.524-.431c-.194-.13-.39-.265-.59-.402a13.27 13.27 0 0 1-1.087-.823 4.418 4.418 0 0 1-.824-.907 3.806 3.806 0 0 1-.514-1.095 4.733 4.733 0 0 1-.179-1.365c0-.563.08-1.091.243-1.591.162-.499.396-.938.703-1.32.304-.38.689-.681 1.152-.907.462-.224.992-.336 1.593-.336Zm-51.897.001c1.073 0 1.959.308 2.659.925.699.618 1.2 1.426 1.499 2.423l-2.719 1.047c-.036-.173-.08-.367-.13-.578a2.006 2.006 0 0 0-.234-.591 1.527 1.527 0 0 0-.411-.458c-.169-.124-.385-.186-.647-.186a1.267 1.267 0 0 0-.808.224c-.222.161-.413.38-.569.654a4.16 4.16 0 0 0-.377.935 9.973 9.973 0 0 0-.308 2.058c-.012.327-.017.598-.017.825 0 .361.015.812.047 1.348.031.536.114 1.053.253 1.551.137.498.351.924.646 1.272.293.348.697.525 1.209.525.348 0 .634-.103.853-.31.217-.205.386-.458.504-.757.12-.3.198-.614.235-.945.038-.33.057-.621.057-.87h-1.782v-2.62h4.573v1.104c0 .749-.059 1.535-.177 2.358a7.772 7.772 0 0 1-.667 2.255 4.544 4.544 0 0 1-1.378 1.692c-.592.451-1.363.673-2.311.673-.638 0-1.204-.106-1.697-.317a4.29 4.29 0 0 1-1.302-.862 5.057 5.057 0 0 1-.946-1.253 7.982 7.982 0 0 1-.629-1.515 10.638 10.638 0 0 1-.356-1.637 12.254 12.254 0 0 1-.112-1.618c0-.81.074-1.649.226-2.516a7.948 7.948 0 0 1 .794-2.376 5.056 5.056 0 0 1 1.548-1.77c.65-.46 1.472-.69 2.474-.69Zm65.422.224v2.618h-2.829v3.07h2.494v2.619h-2.494v3.18h2.868v2.62h-5.659v-14.107h5.62Zm-111.701.001c.45 0 .96.031 1.529.092a4.662 4.662 0 0 1 1.619.486c.514.263.944.664 1.292 1.208.351.542.526 1.293.526 2.253 0 .787-.158 1.496-.476 2.125-.32.63-.828 1.137-1.529 1.525l2.456 6.417h-2.942l-2.456-6.512h-.038v6.512H264V103.67h2.808Zm20.684-.001v6.305h.036l2.327-6.305h2.846l-2.604 6.51 2.941 7.598h-2.941l-2.569-7.187h-.036v7.187h-2.791v-14.108h2.791Zm37.415.001c.449 0 .958.031 1.529.092a4.67 4.67 0 0 1 1.618.486c.513.263.945.664 1.293 1.208.35.542.526 1.293.526 2.253 0 .787-.16 1.496-.478 2.125-.318.63-.828 1.137-1.527 1.525l2.454 6.417h-2.94l-2.456-6.512h-.038v6.512h-2.789V103.67h2.808Zm15.495 0 3.391 14.106h-2.98l-.523-2.377h-2.83l-.506 2.377h-2.772l3.278-14.106h2.942Zm45.509 0 3.486 8.512.036-.036a6.224 6.224 0 0 1-.179-1.05 13.08 13.08 0 0 1-.047-1.084v-6.342H392v14.105h-2.641l-3.448-8.512-.038.038.131 1.421.019.58v6.473h-2.793V103.67h2.681Zm-106.193 0v14.106h-2.793V103.67h2.793Zm70.877 0 3.486 8.512.036-.036a6.224 6.224 0 0 1-.179-1.05 12.264 12.264 0 0 1-.047-1.084v-6.342h2.793v14.105h-2.641l-3.448-8.512-.038.038.131 1.421.019.58v6.473h-2.793V103.67h2.681Zm-11.749 3.628h-.036l-.303 2.133-.595 3.761h1.964l-.712-3.761-.318-2.133Zm-71.479-1.329-.203.002h-.375v3.759l.488.019c.638 0 1.093-.19 1.369-.57.274-.381.411-.864.411-1.451a2.67 2.67 0 0 0-.093-.711 1.397 1.397 0 0 0-.318-.578 1.377 1.377 0 0 0-.592-.367 2.563 2.563 0 0 0-.89-.101l.203-.002Zm58.1 0-.202.002h-.377v3.759l.487.019c.638 0 1.093-.19 1.369-.57.275-.381.412-.864.412-1.451a2.63 2.63 0 0 0-.094-.711 1.375 1.375 0 0 0-.318-.578 1.377 1.377 0 0 0-.592-.367 2.551 2.551 0 0 0-.887-.101l.202-.002Zm11.599-6.136c.389 0 .712.141.975.421.263.281.392.614.392 1.002 0 .374-.137.694-.409.964a1.376 1.376 0 0 1-.996.401 1.35 1.35 0 0 1-.973-.401 1.305 1.305 0 0 1-.411-.964c0-.4.137-.738.411-1.012.276-.274.613-.41 1.011-.41Zm3.899 0c.387 0 .713.141.972.421.264.281.394.614.394 1.002 0 .374-.137.694-.414.964a1.362 1.362 0 0 1-.99.401c-.375 0-.7-.133-.976-.401a1.31 1.31 0 0 1-.412-.964c0-.4.139-.738.412-1.012.276-.274.615-.41 1.014-.41ZM329.488 40c18.994 0 34.323 15.218 34.43 34.184a34.242 34.242 0 0 1-3.525 15.37l-4.969-3.902-3.163 2.563a1.23 1.23 0 0 1-.919.266l-4.707-.549c-.023-.004-.046-.006-.068-.008a1.227 1.227 0 0 0-.745.198l-3.964 2.569a1.233 1.233 0 0 1-1.706-.367l-2.182-3.383-1.997 1.677 5.2 4.72a1.524 1.524 0 0 1 .102 2.158 1.53 1.53 0 0 1-2.157.106c-.002 0-.002 0-.002-.002l-1.881-1.707-3.107 1.53-.015.008a1.23 1.23 0 0 1-1.417-.257l-.009-.01-1.668-1.77a1.236 1.236 0 0 0-1.371-.29l-3.566 1.483c-.459.19-.988.085-1.342-.265l-3.311-3.289a1.238 1.238 0 0 0-1.362-.257l-3.798 1.654a1.245 1.245 0 0 1-1.245-.154l-3.127-2.41a1.23 1.23 0 0 0-1.53.015l-3.032 2.453a1.235 1.235 0 0 1-1.734-.183l-3.012-3.72-3.252 2.555a33.45 33.45 0 0 1-1.388-2.797 34.214 34.214 0 0 1-2.888-13.808c0-18.988 15.414-34.381 34.427-34.381Zm-11.547 36.38-12.947 10.164 1.06 1.31a1.234 1.234 0 0 0 1.725.19l.01-.007 2.536-2.05a1.235 1.235 0 0 1 1.529-.017l3.606 2.785a1.24 1.24 0 0 0 1.247.154l4.046-1.76a1.231 1.231 0 0 1 1.359.256l3.336 3.312c.354.352.883.455 1.342.265l3.633-1.512a1.238 1.238 0 0 1 1.365.287l.006.006 1.567 1.662c.005.005.007.01.013.013.373.382.948.483 1.428.247l-10.211-9.269-2.645-2.4-4.005-3.636Zm29.26 2.81-6.87 5.768.731 1.135a1.23 1.23 0 0 0 1.706.365l2.313-1.5c.012-.005.025-.015.035-.02.215-.13.462-.189.708-.175l.074.005 4.52.53c.33.04.661-.058.92-.266l1.624-1.315-5.761-4.527Zm-17.713-14.218c-5.127 0-9.314 4.114-9.419 9.212l4.172 3.785 2.174 1.974 4.166 3.783c4.684-.542 8.332-4.525 8.332-9.345 0-5.188-4.229-9.41-9.425-9.41Zm-12.025 7.883h-6.042a1.53 1.53 0 0 0-1.53 1.526 1.53 1.53 0 0 0 1.53 1.527h2.171l3.871-3.036v-.017Zm30.094 0h-4.511a1.527 1.527 0 1 0 0 3.053h4.511a1.526 1.526 0 1 0 0-3.053Zm-4.212-12.311a1.528 1.528 0 0 0-2.161 0l-3.193 3.184a1.532 1.532 0 0 0 0 2.16c.6.597 1.567.597 2.165.002l3.191-3.188a1.523 1.523 0 0 0 0-2.157l-.002-.001Zm-25.549.002a1.528 1.528 0 0 0-2.165 2.156l3.191 3.186a1.53 1.53 0 0 0 2.163 0 1.528 1.528 0 0 0 0-2.16l-3.189-3.183Zm11.692-5.733c-.843 0-1.529.683-1.529 1.527v4.502c0 .424.173.804.449 1.08a1.529 1.529 0 0 0 2.609-1.08V56.34c0-.844-.684-1.527-1.529-1.527ZM316.992 214.022c.059.059.073.146.044.264a29.44 29.44 0 0 1-.176 1.232c3.707-.059 6.576.073 8.606.395.206.03.249.148.133.353-.324.558-.913.821-1.766.792-2.148-.089-4.532-.044-7.15.132-.441 4.987-.662 10.633-.662 16.939 0 5.34.191 9.579.573 12.717 3.267-.089 3.63-.004 5.572.319.235.029.294.147.176.352-.323.557-.897.836-1.721.836-2.648-.029-3.233.119-6.233.428-2.11.219-4.097.5-6.185 1.175-.176.059-.294.059-.353 0-.029-.058-.029-.176 0-.352.294-1.173.853-1.878 1.677-2.112 1.824-.528 3.122-.531 5.434-.602a2.23 2.23 0 0 1-.484-1.145c-.237-2.082-.353-4.971-.353-8.667 0-8.096.367-14.682 1.103-19.756-2.943.235-5.62.675-8.033 1.32-.206.059-.338.059-.397 0-.088-.059-.103-.176-.044-.352.293-1.115.838-1.775 1.633-1.98 1.471-.381 3.854-.645 7.15-.792.235-.762.647-1.261 1.235-1.496.118-.029.192-.029.221 0Zm-41.517.792c2.501-.029 4.355 1.159 5.561 3.564.912 1.789 1.309 3.74 1.192 5.852-.148 2.523-.942 3.99-2.383 4.4-.177.059-.295.073-.353.044-.059-.059-.059-.19 0-.395.294-1.169.441-2.441.441-3.815 0-2.279-.383-4.223-1.147-5.831-.824-1.754-1.898-2.601-3.222-2.544-1.884.06-3.825 1.7-5.827 4.921-2.206 3.633-3.353 7.778-3.441 12.434-.06 3.779.617 6.833 2.029 9.161 1.412 2.329 3.325 3.464 5.738 3.404 1.942-.029 3.641-.872 5.098-2.529 1.452-1.652 3.225-4.229 3.263-7.597.111-5.728.558-10.302 1.339-13.722.206-.908.603-1.466 1.192-1.671.177-.059.28-.059.31 0 0 .03-.015.117-.044.264-.737 4.107-1.104 9.768-1.104 16.983v3.652c.622-3.02 1.498-5.544 2.626-7.568.267-.498.578-.747.935-.747.237 0 .505.118.8.352.594.469.891 1.291.891 2.464-.059 5.192.338 7.919 1.192 8.184.353.118.735-.199 1.147-.946.211-.384.382-.813.516-1.286-.04-.375-.066-.774-.075-1.2-.029-2.083.205-3.901.706-5.456.206-.645.588-1.026 1.148-1.144.117 0 .221.058.309.176a26.611 26.611 0 0 0-.574 5.499c0 3.168.353 4.87 1.059 5.105.412.147.905-.22 1.479-1.1.574-.88.978-1.995 1.213-3.345.008-.037.016-.07.025-.1-.221-1.366-.334-2.972-.334-4.827 0-2.611.25-5.515.751-8.712.735-4.429 1.706-6.644 2.912-6.644.382 0 .751.235 1.104.704.795.997 1.191 2.655 1.191 4.972 0 2.287-.367 4.62-1.103 6.995-.794 2.464-1.781 4.225-2.957 5.282.235 4.458.986 6.687 2.252 6.687.557 0 1.146-.419 1.764-1.254.539-.729.971-1.629 1.309-2.682-.282-1.474-.427-3.251-.427-5.348 0-2.611.25-5.515.751-8.712.735-4.429 1.705-6.644 2.912-6.644.383 0 .751.235 1.104.704.794.997 1.192 2.655 1.192 4.972 0 2.287-.368 4.62-1.104 6.995-.795 2.464-1.78 4.225-2.956 5.282.235 4.458.985 6.687 2.25 6.687.558 0 1.148-.419 1.766-1.254.618-.837 1.103-1.885 1.456-3.146.088-.264.177-.293.264-.089.148.265.177.793.089 1.584-.089.998-.383 1.893-.883 2.685-.589.996-1.354 1.496-2.294 1.496-.265 0-.531-.044-.795-.132-1.32-.372-2.288-1.524-2.911-3.44a5.845 5.845 0 0 1-.796 2.076c-.589.996-1.353 1.496-2.295 1.496-.265 0-.529-.044-.794-.132-1.372-.386-2.365-1.612-2.984-3.664-.078.951-.318 1.769-.723 2.454-.53.895-1.192 1.342-1.986 1.342a1.89 1.89 0 0 1-.662-.132c-.845-.302-1.467-.954-1.872-1.953-.325.861-.892 1.292-1.703 1.292-.206 0-.413-.043-.617-.131-1.472-.499-2.34-1.628-2.605-3.388-.176-1.203-.265-3.345-.265-6.425-.059-.409-.165-.454-.313-.131-1.523 3.256-2.418 6.82-2.688 10.691-.029.323-.172.441-.432.353-.92-.324-1.424-1.071-1.51-2.244a51.393 51.393 0 0 1-.139-2.553c-.543 1.399-1.324 2.624-2.191 3.52-1.412 1.467-3.193 2.259-5.34 2.377-2.825.146-5.282-.866-7.371-3.036-2.324-2.434-3.502-5.793-3.53-10.077-.03-5.25 1.235-9.84 3.795-13.771 2.354-3.667 4.914-5.529 7.679-5.588Zm84.618 9.019c.117-.028.191-.028.221 0 .028.03.028.118 0 .265-.207 1.056-.427 2.552-.663 4.488 2.677-.059 5.046.079 7.107.41.146.03.176.122.087.273-.294.424-.721.623-1.279.593a69.286 69.286 0 0 0-6.047 0 91.86 91.86 0 0 0-.485 7.239c-.119 5.001.367 7.5 1.456 7.5.442 0 .912-.351 1.412-1.056.421-.592.747-1.374.981-2.342.037-.279.076-.566.122-.869.323-2.112.514-3.564.574-4.357-.912-.468-1.339-1.304-1.28-2.508.029-.82.206-1.48.529-1.979.266-.411.559-.617.884-.617.705 0 1.058 1.364 1.058 4.092 1.441.089 2.737-.645 3.884-2.2.177-.264.398-.264.662 0 .441.47.662.925.662 1.365 0 .206-.044.425-.132.66a17.459 17.459 0 0 0-1.589 7.348c0 1.935.397 2.904 1.192 2.904 1.013 0 1.894-1.21 2.641-3.622-.018-.25-.032-.507-.037-.778-.03-2.083.205-3.901.706-5.456.205-.645.588-1.027 1.147-1.144.117 0 .221.059.309.176a26.62 26.62 0 0 0-.573 5.5c0 3.168.352 4.87 1.059 5.104.411.147.904-.221 1.478-1.1.348-.533.625-1.164.849-1.869a7.43 7.43 0 0 1-.209-1.783c0-.557.058-1.129.176-1.717.324-1.818.868-3.255 1.633-4.311.706-.939 1.471-1.408 2.295-1.408.382 0 .75.118 1.104.351 1 .705 1.5 1.717 1.5 3.036 0 .471-.059.954-.177 1.452-.295 1.233-.89 2.215-1.787 2.949-.897.733-1.847 1.13-2.847 1.187.177 1.673.633 2.641 1.368 2.905.206.087.442.132.707.132.853 0 1.714-.389 2.582-1.166.624-.559 1.129-1.253 1.517-2.079a66.021 66.021 0 0 0-.127-.495c-.236-.939-.162-1.613.221-2.025.176-.175.323.132.441.925.764-3.961 1.823-6.571 3.177-7.832.264-.264.544-.396.838-.396.354 0 .691.176 1.016.528.176.205.146.395-.088.572-.413.352-.618.924-.618 1.715 0 1.233.455 2.876 1.368 4.929.588 1.379.882 2.538.882 3.475 0 .969-.309 1.738-.926 2.31-.618.573-1.31.859-2.075.859-1.5 0-2.707-1.013-3.618-3.036-.06.147-.177.308-.354.484-.023.018-.043.027-.063.039a4.82 4.82 0 0 1-.885 1.171c-.78.747-1.699 1.122-2.759 1.122a4.38 4.38 0 0 1-1.589-.308c-.735-.293-1.368-.865-1.897-1.716a5.463 5.463 0 0 1-.188-.311 4.98 4.98 0 0 1-.518 1.257c-.53.895-1.192 1.341-1.986 1.341-.206 0-.428-.043-.662-.131-.975-.348-1.657-1.161-2.046-2.439-.49 1.948-1.368 2.922-2.632 2.922-1.148 0-2.016-.631-2.605-1.891-.471-.969-.705-2.068-.705-3.3 0-1.643.338-3.447 1.015-5.412-.707.324-1.516.484-2.428.484h-.353c-.03.559-.132 1.9-.309 4.021-.148 1.768-.221 3.153-.221 4.153 0 .766.044 1.443.133 2.032.029.148 0 .236-.089.266-.059.058-.161.058-.308 0-.75-.24-1.167-.897-1.258-1.962-.481.689-1.089 1.038-1.831 1.038-.206 0-.427-.03-.662-.088-1.206-.295-2.03-1.145-2.472-2.552-.352-1.203-.485-3.139-.397-5.808.059-2.434.309-4.929.75-7.48a30.96 30.96 0 0 0-3.265.44c-.147.029-.236 0-.265-.088-.058-.059-.058-.132 0-.22.118-.675.559-1.056 1.324-1.145.53-.057 1.324-.116 2.383-.175.353-1.731.647-2.992.883-3.785.147-.528.47-.879.971-1.056Zm-22.034-3.827c.117-.029.191-.029.22 0 .059.029.073.103.044.219-1.03 5.31-1.516 11.016-1.456 17.117.029 1.76.088 3.123.176 4.092.177 2.054.515 3.183 1.016 3.388.352.147.764-.205 1.235-1.056.24-.433.445-.939.615-1.516a17.213 17.213 0 0 1-.13-2.18c0-2.053.266-4.062.794-6.028.236-.88.647-1.364 1.237-1.452.147-.029.249-.029.308 0 .03.029.03.117 0 .264-.382 1.965-.573 4.121-.573 6.468 0 1.907.161 3.3.486 4.179.264.734.662 1.1 1.191 1.1.823 0 1.397-1.48 1.721-4.443l.618-5.5c.147-.85.603-1.365 1.368-1.54.147-.029.25-.015.309.044.03.029.03.118 0 .264-.324 2.375-.485 4.531-.485 6.468 0 3.022.411 4.531 1.236 4.531.323 0 .669-.388 1.037-1.165a8.566 8.566 0 0 0 .596-1.84c-.034-.137-.079-.308-.133-.514-.235-.939-.161-1.613.22-2.025.177-.175.324.132.442.925.765-3.961 1.824-6.571 3.177-7.832.266-.264.545-.396.84-.396.352 0 .69.176 1.015.528.176.205.146.395-.089.572-.412.352-.618.924-.618 1.715 0 1.233.456 2.876 1.368 4.929.588 1.379.883 2.538.883 3.475 0 .969-.309 1.738-.926 2.31-.618.573-1.31.859-2.075.859-1.425 0-2.584-.915-3.478-2.738-.268 1.617-.976 2.43-2.127 2.43-1.207 0-2.074-.836-2.604-2.508-.382 1.262-.986 2.127-1.81 2.596a2.243 2.243 0 0 1-1.147.307 1.968 1.968 0 0 1-1.589-.747 3.933 3.933 0 0 1-.517-.879c-.404 1.084-1.027 1.626-1.866 1.626-.206 0-.412-.028-.618-.087-1.412-.47-2.31-1.789-2.692-3.96-.413 2.611-1.457 3.916-3.134 3.916-1.206 0-2.133-.531-2.78-1.589a4.304 4.304 0 0 1-.162-.29 2.794 2.794 0 0 1-.125.251c-.397.704-.934 1.056-1.611 1.056-1.736 0-2.78-1.159-3.133-3.477-.176-1.201-.265-3.344-.265-6.424-.059-.41-.162-.454-.308-.132-1.472 3.228-2.384 6.689-2.737 10.385-.03.323-.162.454-.397.395-.912-.175-1.398-.645-1.456-1.407-.148-1.496-.177-3.388-.089-5.677.089-2.464.265-4.384.53-5.763.147-.733.53-1.188 1.147-1.365.147-.029.25-.029.309 0 .059.03.073.118.044.265-.412 2.787-.545 5.955-.397 9.504.676-3.227 1.544-5.779 2.604-7.657.294-.528.603-.791.927-.791.5 0 .927.294 1.28.88.265.44.397 1.1.397 1.98-.059 5.192.338 7.906 1.192 8.14.411.117.823-.227 1.236-1.034a5.85 5.85 0 0 0 .305-.737 7.837 7.837 0 0 1-.129-1.457c0-.795.088-1.648.264-2.56.382-1.943.985-3.458 1.81-4.547.823-1.089 1.662-1.634 2.516-1.634.794 0 1.485.499 2.073 1.497.354-5.281.986-9.577 1.899-12.893.117-.41.441-.688.971-.835Zm-4.426 13.507c-.505-.116-1.093.441-1.761 1.673-.669 1.232-1.122 2.684-1.359 4.356-.09.645-.134 1.247-.134 1.803 0 1.116.156 1.988.468 2.618.312.632.661.962 1.047.99.654.06 1.322-.674 2.006-2.199.742-1.701 1.084-3.636 1.025-5.809-.031-.996-.194-1.832-.491-2.508-.238-.556-.505-.864-.801-.924Zm54.66 1.101c-.648 1.027-1.397 3.314-2.251 6.864.47.997 1.074 1.789 1.81 2.375.647.528 1.25.793 1.809.793.618 0 .927-.337.927-1.012 0-.587-.397-1.804-1.192-3.653-.794-1.847-1.191-3.314-1.191-4.399 0-.352.029-.674.088-.968Zm-35.273 0c-.648 1.027-1.398 3.314-2.251 6.864.471.997 1.073 1.789 1.81 2.375.647.528 1.249.793 1.809.793.618 0 .926-.337.926-1.012 0-.587-.397-1.804-1.191-3.653-.795-1.847-1.192-3.314-1.192-4.399 0-.352.029-.674.089-.968Zm28.477-.793c-.471-.116-1.001.368-1.589 1.452-.647 1.174-1.045 2.539-1.192 4.093-.058.675-.073 1.173-.043 1.496 1.058-.235 1.912-.982 2.559-2.244a7.103 7.103 0 0 0 .795-3.301c0-.908-.177-1.408-.53-1.496Zm-80.344-11.923c-.325-.176-.707.865-1.148 3.123-.441 2.26-.736 4.725-.882 7.393a88.973 88.973 0 0 0-.089 4.399c1.706-2.697 2.56-6.584 2.56-11.659 0-2.025-.148-3.109-.441-3.256Zm6.796 0c-.325-.176-.707.865-1.148 3.123-.441 2.26-.736 4.725-.882 7.393a88.973 88.973 0 0 0-.089 4.399c1.707-2.697 2.56-6.584 2.56-11.659 0-2.025-.148-3.109-.441-3.256Zm-13.814 9.02c.559-.088.883.219.971.924.059.411-.03.763-.264 1.056-.237.294-.515.469-.839.528-.324.058-.589-.007-.794-.198-.207-.19-.281-.477-.221-.858.117-.88.5-1.364 1.147-1.452Zm80.731 0c.557-.088.881.219.97.924.058.411-.03.763-.265 1.056-.235.294-.515.469-.838.528-.324.058-.589-.007-.795-.198-.206-.19-.28-.477-.22-.858.116-.88.5-1.364 1.148-1.452Z" fill="#fff"/></svg>