<svg width="220" height="19" fill="none" xmlns="http://www.w3.org/2000/svg"><path fill-rule="evenodd" clip-rule="evenodd" d="M34.412 5.122c1.508 0 2.723.386 3.646 1.159.922.772 1.415 1.825 1.48 3.158h-2.744c-.048-.601-.289-1.081-.722-1.439-.433-.357-1.019-.536-1.757-.536-.721 0-1.275.138-1.66.414-.385.277-.578.643-.578 1.098 0 .358.129.658.386.902.256.244.569.435.938.573.369.139.914.313 1.636.525.963.26 1.753.524 2.37.792a4.416 4.416 0 0 1 1.601 1.183c.45.52.682 1.212.698 2.073a3.51 3.51 0 0 1-.626 2.05c-.417.6-1.006 1.072-1.768 1.414-.762.341-1.657.512-2.684.512-1.042 0-1.977-.193-2.803-.573-.826-.382-1.48-.903-1.962-1.561a3.924 3.924 0 0 1-.77-2.207h2.84c.048.569.317 1.044.806 1.426.49.383 1.103.574 1.841.574.77 0 1.368-.15 1.793-.452.425-.3.638-.687.638-1.158 0-.504-.237-.878-.71-1.122-.473-.244-1.224-.512-2.25-.805-.995-.276-1.805-.545-2.43-.805a4.263 4.263 0 0 1-1.625-1.195c-.457-.537-.686-1.244-.686-2.122 0-.715.209-1.37.626-1.963.417-.594 1.014-1.061 1.793-1.403.778-.341 1.672-.512 2.683-.512Zm70.606 0c1.252 0 2.367.277 3.345.83a5.816 5.816 0 0 1 2.286 2.329c.546 1 .819 2.15.819 3.45 0 .505-.032.96-.097 1.367H101.24c.08 1.073.471 1.935 1.179 2.585.706.65 1.572.976 2.599.976 1.476 0 2.519-.626 3.129-1.878h2.96a6.049 6.049 0 0 1-2.178 3.036c-1.051.789-2.355 1.183-3.911 1.183-1.267 0-2.402-.289-3.405-.866a6.121 6.121 0 0 1-2.358-2.439c-.57-1.049-.855-2.264-.855-3.646 0-1.382.277-2.598.83-3.646a5.88 5.88 0 0 1 2.335-2.427c1.003-.57 2.154-.854 3.453-.854Zm-28.397 0c1.268 0 2.415.284 3.442.853a6.191 6.191 0 0 1 2.43 2.44c.594 1.056.89 2.268.89 3.634 0 1.365-.304 2.577-.914 3.634a6.372 6.372 0 0 1-2.49 2.45c-1.052.578-2.21.867-3.478.867-1.252 0-2.383-.289-3.393-.866a6.181 6.181 0 0 1-2.383-2.44c-.577-1.048-.866-2.263-.866-3.646 0-1.365.297-2.577.89-3.634a6.191 6.191 0 0 1 2.43-2.439c1.028-.569 2.175-.853 3.442-.853Zm137.892-.073c1.588 0 2.856.402 3.802 1.207.947.805 1.468 1.89 1.565 3.256h-3.225c-.048-.537-.271-.963-.662-1.28-.393-.318-.918-.476-1.576-.476-.612 0-1.079.114-1.408.341a1.092 1.092 0 0 0-.493.952c0 .455.224.8.674 1.036.447.236 1.147.476 2.093.72.963.244 1.757.496 2.383.756.625.26 1.167.662 1.624 1.207.457.545.692 1.264.71 2.159 0 .78-.213 1.48-.638 2.097-.425.618-1.035 1.102-1.829 1.451-.794.35-1.72.525-2.779.525-1.091 0-2.07-.2-2.936-.598-.868-.398-1.552-.939-2.058-1.622a4.146 4.146 0 0 1-.83-2.268h3.393c.062.52.317.951.758 1.293.441.341.991.512 1.649.512.639 0 1.141-.13 1.504-.39.361-.26.541-.594.541-1 0-.44-.222-.769-.662-.988-.441-.22-1.143-.46-2.105-.72-.995-.244-1.811-.496-2.443-.756a4.238 4.238 0 0 1-1.636-1.195c-.458-.537-.686-1.26-.686-2.17 0-.749.21-1.432.638-2.05.425-.617 1.034-1.105 1.827-1.463.796-.357 1.73-.536 2.805-.536Zm-68.273 0c.995 0 1.867.203 2.613.61.746.406 1.344.918 1.791 1.536V5.268h3.395V18.78h-3.395v-1.976c-.433.635-1.029 1.159-1.791 1.574-.764.414-1.642.622-2.637.622a5.613 5.613 0 0 1-3.068-.878c-.923-.586-1.651-1.411-2.19-2.476-.536-1.065-.804-2.289-.804-3.67 0-1.367.268-2.578.804-3.635.539-1.057 1.267-1.87 2.19-2.439.922-.569 1.955-.853 3.092-.853ZM58.14.732v6.61c.465-.651 1.103-1.184 1.913-1.598.81-.415 1.713-.622 2.707-.622 1.171 0 2.23.284 3.177.853.946.57 1.692 1.379 2.238 2.427.545 1.049.818 2.248.818 3.598 0 1.35-.273 2.557-.818 3.622-.546 1.065-1.296 1.894-2.25 2.487-.955.594-2.01.89-3.165.89-1.026 0-1.937-.203-2.731-.61-.794-.406-1.424-.926-1.89-1.56v1.951h-2.743V.732h2.744Zm135.173 4.316c1.267 0 2.4.277 3.403.83a5.788 5.788 0 0 1 2.335 2.353c.555 1.016.83 2.183.83 3.5 0 .488-.03.927-.096 1.317h-9.747c.08.976.417 1.74 1.011 2.293.593.553 1.323.829 2.192.829 1.251 0 2.14-.545 2.671-1.634h3.632c-.383 1.3-1.121 2.37-2.212 3.207-1.093.84-2.431 1.256-4.019 1.256-1.286 0-2.437-.288-3.455-.866a6.042 6.042 0 0 1-2.381-2.45c-.569-1.058-.854-2.277-.854-3.66 0-1.396.281-2.623.842-3.682a5.922 5.922 0 0 1 2.359-2.44c1.01-.566 2.173-.853 3.489-.853ZM2.91 1.83l3.467 13.805L10.13 1.829h3.083l3.487 13.732 3.492-13.732h2.934L18.169 18.78h-3.104L11.55 5.951 7.82 18.781l-3.08.024L0 1.829h2.91ZM208.35 5.073V8.66h-.891c-1.057 0-1.857.252-2.392.756-.54.504-.808 1.382-.808 2.634v6.732h-3.368V5.268h3.368v2.097a4.763 4.763 0 0 1 1.696-1.683c.7-.406 1.496-.61 2.395-.61Zm-117.002.049c1.043 0 1.977.22 2.804.659.826.439 1.472 1.089 1.937 1.95.465.863.698 1.903.698 3.123v7.926h-2.72v-7.512c0-1.203-.296-2.126-.89-2.768-.594-.642-1.404-.963-2.43-.963-1.027 0-1.842.32-2.443.963-.602.642-.903 1.565-.903 2.768v7.512H84.66V5.342h2.743v1.536a4.547 4.547 0 0 1 1.721-1.293 5.438 5.438 0 0 1 2.226-.463Zm71.519-.049V8.66h-.89c-1.057 0-1.857.252-2.393.756-.539.504-.808 1.382-.808 2.634v6.732h-3.367V5.268h3.367v2.097a4.766 4.766 0 0 1 1.697-1.683c.7-.406 1.496-.61 2.394-.61ZM44.448.732v6.17a4.604 4.604 0 0 1 1.768-1.317 5.845 5.845 0 0 1 2.347-.463c1.01 0 1.913.22 2.707.659.794.439 1.42 1.089 1.877 1.95.457.863.686 1.903.686 3.123v7.926h-2.72v-7.512c0-1.203-.296-2.126-.89-2.768-.593-.642-1.404-.963-2.43-.963-1.027 0-1.841.32-2.443.963-.602.642-.903 1.565-.903 2.768v7.512h-2.743V.732h2.743Zm-17.28 4.61V18.78h-2.742V5.341h2.743Zm106.847-3.586c1.3 0 2.407.227 3.321.683.915.455 1.601 1.081 2.058 1.878.457.797.684 1.699.684 2.707 0 .91-.211 1.764-.636 2.561-.425.797-1.091 1.439-1.997 1.927-.907.487-2.05.731-3.43.731H131.2v6.537h-3.369V1.756h6.184Zm34.559.17v3.342h2.984v2.805h-2.984v6.536c0 .456.108.785.325.988.216.204.581.305 1.095.305h1.564v2.878h-2.118c-2.84 0-4.259-1.398-4.259-4.195V8.073h-1.589V5.268h1.589V1.927h3.393Zm11.838 3.147c1.589 0 2.874.508 3.851 1.524.978 1.016 1.468 2.435 1.468 4.256v7.927h-3.367v-7.463c0-1.074-.267-1.899-.797-2.476-.527-.577-1.251-.866-2.165-.866-.931 0-1.665.289-2.2.866-.54.577-.809 1.402-.809 2.476v7.463h-3.369V5.268h3.369v1.683a4.662 4.662 0 0 1 1.723-1.378 5.248 5.248 0 0 1 2.296-.5ZM62.159 7.536c-.69 0-1.344.18-1.962.537-.617.358-1.115.878-1.492 1.56-.377.684-.565 1.489-.565 2.416 0 .926.188 1.735.565 2.426.377.691.875 1.216 1.492 1.573a3.853 3.853 0 0 0 3.947-.012c.618-.366 1.115-.898 1.492-1.597.377-.7.566-1.512.566-2.44 0-.926-.189-1.727-.566-2.402-.377-.674-.874-1.187-1.492-1.536a3.966 3.966 0 0 0-1.985-.525Zm14.414 0c-.706 0-1.36.171-1.961.513-.602.341-1.08.85-1.432 1.524-.353.675-.53 1.5-.53 2.476 0 1.447.365 2.565 1.095 3.353.73.789 1.649 1.183 2.756 1.183a4.04 4.04 0 0 0 1.985-.512c.618-.342 1.12-.854 1.504-1.537.385-.683.578-1.512.578-2.487 0-.976-.185-1.801-.554-2.476-.369-.675-.858-1.183-1.468-1.524a3.973 3.973 0 0 0-1.973-.513Zm44.52-3.658V8.61h4.546v2.975h-4.546v4.732h-3.177v-4.732h-4.548V8.61h4.548V3.878h3.177Zm26.015 4.17c-.627 0-1.205.155-1.734.464-.528.309-.959.76-1.286 1.354-.329.593-.493 1.296-.493 2.11 0 .812.164 1.524.493 2.133.327.61.762 1.078 1.298 1.403a3.273 3.273 0 0 0 1.722.488 3.427 3.427 0 0 0 3.055-1.841c.32-.594.481-1.306.481-2.135 0-.83-.161-1.54-.481-2.134a3.426 3.426 0 0 0-3.055-1.841Zm-42.21-.584c-.947 0-1.757.305-2.431.914-.674.61-1.075 1.435-1.203 2.476h7.34c-.016-1.025-.377-1.846-1.083-2.464-.708-.617-1.58-.926-2.623-.926Zm88.317.39c-.835 0-1.536.255-2.106.767-.57.513-.918 1.224-1.045 2.134h6.327c-.016-.878-.329-1.58-.938-2.11-.608-.528-1.356-.792-2.238-.792Zm-59.344-3.318H131.2v4.951h2.671c.93 0 1.618-.215 2.07-.646.449-.43.673-1.036.673-1.817 0-1.658-.914-2.488-2.743-2.488ZM25.821 0c.482 0 .89.17 1.228.512.337.342.505.764.505 1.268s-.168.927-.505 1.269a1.66 1.66 0 0 1-1.228.512c-.497 0-.914-.17-1.251-.512-.337-.342-.506-.764-.506-1.269 0-.504.169-.926.506-1.268A1.688 1.688 0 0 1 25.82 0Z" fill="#1B1A1A"/></svg>