<svg width="117" height="102" fill="none" xmlns="http://www.w3.org/2000/svg"><path fill-rule="evenodd" clip-rule="evenodd" d="M58.5 0C90.809 0 117 22.834 117 51s-26.191 51-58.5 51S0 79.166 0 51 26.191 0 58.5 0Zm1.601 41.673-10.258.993c-2.278 8.605-3.99 13.735-8.549 18.369l2.249 1.957c5.37-5.228 6.977-11.227 8.898-17.753l6.477-.627 6.927 6.034-.72 5.642c-7.492 1.674-14.38 3.074-20.38 7.752l2.25 1.96c5.317-3.971 11.207-5.461 21.086-7.447l1.14-8.936-9.12-7.944Zm-2.28 9.928c-.809-.73-2.007-1.023-3.134-.766-1.128.257-2.008 1.024-2.303 2.006-.295.982.041 2.026.88 2.731 1.269 1.05 3.265 1.026 4.501-.05 1.236-1.078 1.261-2.817.057-3.92Zm6.27-14.396a.892.892 0 0 0-.824-.169c-.29.084-.5.303-.543.566l-.342 2.086L71.5 47.63l2.376-.323c.3-.04.549-.224.643-.476a.64.64 0 0 0-.197-.715l-10.231-8.911Z" fill="#403E3B"/></svg>